<?xml version="1.0" encoding="UTF-8" standalone="no"?>
<!-- Created with Inkscape (http://www.inkscape.org/) -->

<svg
   xmlns:dc="http://purl.org/dc/elements/1.1/"
   xmlns:cc="http://creativecommons.org/ns#"
   xmlns:rdf="http://www.w3.org/1999/02/22-rdf-syntax-ns#"
   xmlns:svg="http://www.w3.org/2000/svg"
   xmlns="http://www.w3.org/2000/svg"
   xmlns:sodipodi="http://sodipodi.sourceforge.net/DTD/sodipodi-0.dtd"
   xmlns:inkscape="http://www.inkscape.org/namespaces/inkscape"
   width="365"
   height="35"
   viewBox="0 0 365.00001 35.000001"
   id="svg2"
   version="1.1"
   inkscape:version="0.91 r13725"
   sodipodi:docname="ffnord-con-2015.2-logo.svg">
  <defs
     id="defs4" />
  <sodipodi:namedview
     id="base"
     pagecolor="#ffffff"
     bordercolor="#666666"
     borderopacity="1.0"
     inkscape:pageopacity="0.0"
     inkscape:pageshadow="2"
     inkscape:zoom="4"
     inkscape:cx="159.03662"
     inkscape:cy="-12.659595"
     inkscape:document-units="px"
     inkscape:current-layer="layer1"
     showgrid="false"
     inkscape:window-width="2560"
     inkscape:window-height="1417"
     inkscape:window-x="0"
     inkscape:window-y="23"
     inkscape:window-maximized="0"
     units="px"
     fit-margin-top="0"
     fit-margin-left="0"
     fit-margin-right="0"
     fit-margin-bottom="0" />
  <metadata
     id="metadata7">
    <rdf:RDF>
      <cc:Work
         rdf:about="">
        <dc:format>image/svg+xml</dc:format>
        <dc:type
           rdf:resource="http://purl.org/dc/dcmitype/StillImage" />
        <dc:title></dc:title>
      </cc:Work>
    </rdf:RDF>
  </metadata>
  <g
     inkscape:label="Layer 1"
     inkscape:groupmode="layer"
     id="layer1"
     transform="translate(374.04448,35.182577)">
    <path
       d="m -368.48625,-1.901669 0,-31.561806 14.10573,0 0,5.177812 -6.37709,0 0,7.214667 5.7489,0 0,5.368171 -5.7489,0 0,13.801156 -7.72864,0 z"
       style="font-style:normal;font-variant:normal;font-weight:800;font-stretch:normal;font-size:40px;line-height:125%;font-family:Oswald;-inkscape-font-specification:'Oswald Ultra-Bold';letter-spacing:0px;word-spacing:0px;fill:none;fill-opacity:1;stroke:#009ee0;stroke-width:1.94929385;stroke-linecap:round;stroke-linejoin:round;stroke-miterlimit:4;stroke-dasharray:none;stroke-opacity:1"
       id="path11005"
       inkscape:connector-curvature="0" />
    <path
       d="m -351.04921,-1.901669 0,-31.561806 14.10573,0 0,5.177812 -6.37709,0 0,7.214667 5.7489,0 0,5.368171 -5.7489,0 0,13.801156 -7.72864,0 z"
       style="font-style:normal;font-variant:normal;font-weight:800;font-stretch:normal;font-size:40px;line-height:125%;font-family:Oswald;-inkscape-font-specification:'Oswald Ultra-Bold';letter-spacing:0px;word-spacing:0px;fill:none;fill-opacity:1;stroke:#009ee0;stroke-width:1.94929385;stroke-linecap:round;stroke-linejoin:round;stroke-miterlimit:4;stroke-dasharray:none;stroke-opacity:1"
       id="path11007"
       inkscape:connector-curvature="0" />
    <path
       d="m -333.61217,-1.901669 0,-31.561806 5.48239,0 5.76793,13.515604 0,-13.515604 6.37709,0 0,31.561806 -5.273,0 -5.72985,-14.848142 0,14.848142 -6.62456,0 z"
       style="font-style:normal;font-variant:normal;font-weight:800;font-stretch:normal;font-size:40px;line-height:125%;font-family:Oswald;-inkscape-font-specification:'Oswald Ultra-Bold';letter-spacing:0px;word-spacing:0px;fill:none;fill-opacity:1;stroke:#009ee0;stroke-width:1.94929385;stroke-linecap:round;stroke-linejoin:round;stroke-miterlimit:4;stroke-dasharray:none;stroke-opacity:1"
       id="path11009"
       inkscape:connector-curvature="0" />
    <path
       d="m -297.40555,-2.0920273 q -1.90362,0.6852937 -4.60673,0.6852937 -2.70313,0 -4.60674,-0.6852937 -1.9036,-0.7043383 -3.02673,-2.0749356 -1.12313,-1.3896321 -1.61807,-3.2551648 -0.49493,-1.8845773 -0.49493,-4.4354033 l 0,-11.650082 q 0,-2.550836 0.49493,-4.416369 0.49494,-1.884567 1.61807,-3.255165 1.12313,-1.389632 3.02673,-2.074935 1.90361,-0.704338 4.60674,-0.704338 2.70311,0 4.60673,0.704338 1.92264,0.685303 3.04577,2.074935 1.14216,1.370598 1.6371,3.255165 0.51397,1.865533 0.51397,4.416369 l 0,11.650082 q 0,2.550826 -0.51397,4.4354033 -0.49494,1.8655327 -1.6371,3.2551648 -1.12313,1.3705973 -3.04577,2.0749356 z m -4.60673,-4.6638415 q 0.62819,0 1.02794,-0.2665074 0.39976,-0.2855423 0.57108,-0.8185475 0.17133,-0.5330149 0.20941,-0.9708361 0.0571,-0.4378309 0.0571,-1.0850646 l 0,-15.5905396 q 0,-0.647224 -0.0571,-1.085055 -0.0381,-0.437831 -0.20941,-0.951802 -0.17132,-0.533014 -0.57108,-0.799522 -0.39975,-0.285532 -1.02794,-0.285532 -0.51398,0 -0.87566,0.209393 -0.36169,0.209393 -0.55205,0.494935 -0.17133,0.266508 -0.2665,0.761443 -0.0952,0.475901 -0.11422,0.799513 0,0.304577 0,0.856627 l 0,15.5905396 q 0,0.5330149 0,0.8566269 0.019,0.323612 0.11422,0.8185475 0.0951,0.4759103 0.2665,0.7614429 0.19036,0.2665074 0.55205,0.4949452 0.36168,0.2093931 0.87566,0.2093931 z"
       style="font-style:normal;font-variant:normal;font-weight:800;font-stretch:normal;font-size:40px;line-height:125%;font-family:Oswald;-inkscape-font-specification:'Oswald Ultra-Bold';letter-spacing:0px;word-spacing:0px;fill:none;fill-opacity:1;stroke:#009ee0;stroke-width:1.94929385;stroke-linecap:round;stroke-linejoin:round;stroke-miterlimit:4;stroke-dasharray:none;stroke-opacity:1"
       id="path11011"
       inkscape:connector-curvature="0" />
    <path
       d="m -280.27309,-20.100159 2.01783,0 q 1.9036,0 2.62697,-1.085055 0.74241,-1.10409 0.74241,-3.121911 0,-1.941682 -0.70434,-2.988668 -0.68529,-1.06602 -2.28433,-1.06602 l -2.39854,0 0,8.261654 z m -7.72864,18.19849 0,-31.561806 9.42285,0 q 2.01783,0 3.55975,0.209393 1.56095,0.209393 2.96962,0.761443 1.42771,0.55205 2.32241,1.484816 0.91373,0.913731 1.44673,2.398548 0.53302,1.465771 0.53302,3.464557 0,3.179026 -0.79952,5.063603 -0.79952,1.884568 -3.06481,3.064807 l 4.30216,15.114639 -8.09034,0 -3.2742,-13.953445 -1.59903,0 0,13.953445 -7.72864,0 z"
       style="font-style:normal;font-variant:normal;font-weight:800;font-stretch:normal;font-size:40px;line-height:125%;font-family:Oswald;-inkscape-font-specification:'Oswald Ultra-Bold';letter-spacing:0px;word-spacing:0px;fill:none;fill-opacity:1;stroke:#009ee0;stroke-width:1.94929385;stroke-linecap:round;stroke-linejoin:round;stroke-miterlimit:4;stroke-dasharray:none;stroke-opacity:1"
       id="path11013"
       inkscape:connector-curvature="0" />
    <path
       d="m -263.71171,-1.901669 0,-31.561806 8.31877,0 q 3.25516,0 5.34913,0.55204 2.11301,0.533015 3.36939,1.789393 1.25638,1.256378 1.75132,3.102876 0.51397,1.827463 0.51397,4.625772 l 0,11.383574 q 0,2.8173339 -0.51397,4.6638317 -0.49494,1.827463 -1.75132,3.102886 -1.25638,1.2563784 -3.36939,1.8084184 -2.09397,0.5330149 -5.3301,0.5330149 l -8.3378,0 z m 7.72865,-5.3301004 0.72337,0 q 0.98987,0 1.56096,-0.1522886 0.59012,-0.1713234 0.87566,-0.5901194 0.30458,-0.4187961 0.38072,-0.9137315 0.0952,-0.5139703 0.0952,-1.4277021 l 0,-14.810072 q 0,-0.913731 -0.0952,-1.408667 -0.0761,-0.494935 -0.38072,-0.894696 -0.28554,-0.399752 -0.87566,-0.55204 -0.57109,-0.152289 -1.56096,-0.152289 l -0.72337,0 0,20.9016056 z"
       style="font-style:normal;font-variant:normal;font-weight:800;font-stretch:normal;font-size:40px;line-height:125%;font-family:Oswald;-inkscape-font-specification:'Oswald Ultra-Bold';letter-spacing:0px;word-spacing:0px;fill:none;fill-opacity:1;stroke:#009ee0;stroke-width:1.94929385;stroke-linecap:round;stroke-linejoin:round;stroke-miterlimit:4;stroke-dasharray:none;stroke-opacity:1"
       id="path11015"
       inkscape:connector-curvature="0" />
    <path
       d="m -190.18059,-1.3108673 q -2.72702,0 -4.66666,-0.7105566 -1.92043,-0.7297669 -3.05349,-2.1508898 -1.11385,-1.4211229 -1.63237,-3.3223472 -0.49931,-1.901234 -0.49931,-4.4746141 l 0,-11.503406 q 0,-2.592591 0.49931,-4.493825 0.51852,-1.901224 1.63237,-3.322347 1.13306,-1.421123 3.05349,-2.131689 1.93964,-0.729767 4.66666,-0.729767 2.17009,0 3.82167,0.460911 1.65157,0.4417 2.70781,1.248279 1.07544,0.787378 1.7476,1.978046 0.67215,1.171467 0.94101,2.515778 0.28807,1.344301 0.28807,2.995879 l 0,2.861447 -7.66254,0 0,-3.495191 q 0,-0.691357 -0.0384,-1.094656 -0.0384,-0.42249 -0.21125,-0.960212 -0.15363,-0.556933 -0.55693,-0.825789 -0.40329,-0.288067 -1.03703,-0.288067 -0.51851,0 -0.9026,0.211245 -0.36489,0.211255 -0.55693,0.499322 -0.19204,0.288056 -0.30727,0.768167 -0.096,0.480112 -0.13443,0.84499 -0.0192,0.364888 -0.0192,0.8642 l 0,15.6707535 q 0,0.4993116 0.0192,0.8834005 0.0384,0.3648785 0.15364,0.8449896 0.11522,0.4609008 0.30726,0.7681777 0.19205,0.2880569 0.55693,0.4993116 0.38409,0.1920445 0.8834,0.1920445 0.63374,0 1.03703,-0.2688661 0.4033,-0.2880667 0.55693,-0.8449897 0.17284,-0.556923 0.21125,-0.9602221 0.0384,-0.42249 0.0384,-1.113846 l 0,-3.6488245 7.66254,0 0,2.842236 q 0,1.6707787 -0.28807,3.0342902 -0.26886,1.3443013 -0.94101,2.5541792 -0.67216,1.209878 -1.7476,2.0356574 -1.05624,0.8065885 -2.70781,1.2866996 -1.65158,0.4801013 -3.82167,0.4801013 z"
       style="font-style:normal;font-variant:normal;font-weight:800;font-stretch:normal;font-size:medium;line-height:125%;font-family:Oswald;-inkscape-font-specification:'Oswald Ultra-Bold';letter-spacing:0px;word-spacing:0px;fill:none;fill-opacity:1;stroke:#ffb400;stroke-width:1.94929385;stroke-linecap:round;stroke-linejoin:round;stroke-miterlimit:4;stroke-dasharray:none;stroke-opacity:1"
       id="path11017"
       inkscape:connector-curvature="0" />
    <path
       d="m -162.89121,-2.0022233 q -1.92043,0.691356 -4.64745,0.691356 -2.72702,0 -4.64745,-0.691356 -1.92044,-0.7105566 -3.0535,-2.0932687 -1.13305,-1.4019224 -1.63236,-3.2839461 -0.49931,-1.9012341 -0.49931,-4.4746139 l 0,-11.753063 q 0,-2.573379 0.49931,-4.455413 0.49931,-1.901224 1.63236,-3.283946 1.13306,-1.401913 3.0535,-2.093269 1.92043,-0.710566 4.64745,-0.710566 2.72702,0 4.64745,0.710566 1.93965,0.691356 3.0727,2.093269 1.15226,1.382722 1.65157,3.283946 0.51852,1.882034 0.51852,4.455413 l 0,11.753063 q 0,2.5733798 -0.51852,4.4746139 -0.49931,1.8820237 -1.65157,3.2839461 -1.13305,1.3827121 -3.0727,2.0932687 z m -4.64745,-4.7050593 q 0.63375,0 1.03704,-0.2688661 0.40329,-0.2880667 0.57612,-0.8257891 0.17284,-0.5377225 0.21126,-0.9794227 0.0576,-0.4417003 0.0576,-1.0946455 l 0,-15.728365 q 0,-0.652945 -0.0576,-1.094645 -0.0384,-0.4417 -0.21126,-0.960222 -0.17283,-0.537723 -0.57612,-0.806579 -0.40329,-0.288067 -1.03704,-0.288067 -0.51852,0 -0.8834,0.211245 -0.36489,0.211255 -0.55693,0.499322 -0.17283,0.268856 -0.26886,0.768167 -0.096,0.480112 -0.11522,0.806589 0,0.307267 0,0.86419 l 0,15.728365 q 0,0.5377225 0,0.8642 0.0192,0.3264677 0.11522,0.8257891 0.096,0.4801013 0.26886,0.7681679 0.19204,0.2688661 0.55693,0.4993116 0.36488,0.2112548 0.8834,0.2112548 z"
       style="font-style:normal;font-variant:normal;font-weight:800;font-stretch:normal;font-size:medium;line-height:125%;font-family:Oswald;-inkscape-font-specification:'Oswald Ultra-Bold';letter-spacing:0px;word-spacing:0px;fill:none;fill-opacity:1;stroke:#ffb400;stroke-width:1.94929385;stroke-linecap:round;stroke-linejoin:round;stroke-miterlimit:4;stroke-dasharray:none;stroke-opacity:1"
       id="path11019"
       inkscape:connector-curvature="0" />
    <path
       d="m -153.40426,-1.8101789 0,-31.8408091 5.53086,0 5.81891,13.635087 0,-13.635087 6.43346,0 0,31.8408091 -5.3196,0 -5.78051,-14.9793871 0,14.9793871 -6.68312,0 z"
       style="font-style:normal;font-variant:normal;font-weight:800;font-stretch:normal;font-size:medium;line-height:125%;font-family:Oswald;-inkscape-font-specification:'Oswald Ultra-Bold';letter-spacing:0px;word-spacing:0px;fill:none;fill-opacity:1;stroke:#ffb400;stroke-width:1.94929385;stroke-linecap:round;stroke-linejoin:round;stroke-miterlimit:4;stroke-dasharray:none;stroke-opacity:1"
       id="path11021"
       inkscape:connector-curvature="0" />
    <path
       d="m -129.19508,-1.8101789 0,-5.127559 7.39368,-11.4649961 q 0.17283,-0.268866 0.71056,-1.075445 0.55693,-0.825789 0.80658,-1.248289 0.26886,-0.42249 0.71056,-1.190667 0.4417,-0.787379 0.65295,-1.344302 0.23045,-0.556923 0.4033,-1.248288 0.19203,-0.691356 0.19203,-1.305891 0,-1.28669 -0.65294,-1.843622 -0.46091,-0.384079 -1.07545,-0.384079 -0.26886,0 -0.55692,0.0768 -0.8834,0.211245 -1.3251,1.094645 -0.4417,0.8642 -0.4417,2.861456 l 0,1.68998 -6.99039,0 0,-1.843613 q 0,-2.1701 0.51852,-3.936901 0.53772,-1.786002 1.61316,-3.168714 1.07545,-1.401922 2.88066,-2.17009 1.82441,-0.768178 4.22496,-0.768178 4.37859,0 6.6639,2.227711 2.30453,2.227702 2.30453,6.279816 0,0.652955 -0.0768,1.28669 -0.0576,0.633745 -0.26886,1.3059 -0.21125,0.672156 -0.34568,1.152257 -0.13443,0.460911 -0.53772,1.209878 -0.38409,0.729767 -0.53772,1.075445 -0.15364,0.326478 -0.69136,1.133056 -0.53772,0.806579 -0.67216,1.017834 -0.11522,0.211245 -0.74896,1.113846 -0.63375,0.902611 -0.71056,1.017833 l -5.39643,7.9698053 9.06445,0 0,5.6076701 -17.11107,0 z"
       style="font-style:normal;font-variant:normal;font-weight:800;font-stretch:normal;font-size:medium;line-height:125%;font-family:Oswald;-inkscape-font-specification:'Oswald Ultra-Bold';letter-spacing:0px;word-spacing:0px;fill:none;fill-opacity:1;stroke:#dc0067;stroke-width:1.94929385;stroke-linecap:round;stroke-linejoin:round;stroke-miterlimit:4;stroke-dasharray:none;stroke-opacity:1"
       id="path11023"
       inkscape:connector-curvature="0" />
    <path
       d="m -99.140258,-1.1572337 q -4.301782,0 -6.625512,-2.4389467 -2.30452,-2.4389565 -2.30452,-6.5870926 l 0,-14.691331 q 0,-4.32098 2.2277,-6.817548 2.24691,-2.496558 6.702332,-2.496558 4.416988,0 6.644699,2.515768 2.246903,2.496568 2.246903,6.798338 l 0,14.691331 q 0,4.0713242 -2.342925,6.5486818 -2.342934,2.4773575 -6.548677,2.4773575 z M -100.619,-10.413728 q 0,2.7078124 1.478742,2.7078124 1.47873,0 1.47873,-2.7078124 l 0,-14.21122 q 0,-0.0192 0,-0.288067 0,-0.288066 0,-0.403289 0,-0.134433 -0.0192,-0.4225 -0.0192,-0.288057 -0.0576,-0.44169 -0.0384,-0.172844 -0.11523,-0.4225 -0.0576,-0.268866 -0.17284,-0.403289 -0.11522,-0.153634 -0.26886,-0.307277 -0.13443,-0.153634 -0.36488,-0.211245 -0.21125,-0.0768 -0.48011,-0.0768 -0.34567,0 -0.61454,0.115223 -0.268862,0.096 -0.422492,0.345678 -0.15364,0.249656 -0.26887,0.460901 -0.096,0.192044 -0.13443,0.576133 -0.0384,0.364879 -0.0384,0.518522 0,0.0768 0,0.230446 0,0.134433 0,0.326477 0,0.384089 0,0.40329 l 0,14.211219 z"
       style="font-style:normal;font-variant:normal;font-weight:800;font-stretch:normal;font-size:medium;line-height:125%;font-family:Oswald;-inkscape-font-specification:'Oswald Ultra-Bold';letter-spacing:0px;word-spacing:0px;fill:none;fill-opacity:1;stroke:#dc0067;stroke-width:1.94929385;stroke-linecap:round;stroke-linejoin:round;stroke-miterlimit:4;stroke-dasharray:none;stroke-opacity:1"
       id="path11025"
       inkscape:connector-curvature="0" />
    <path
       d="m -80.396818,-1.8101789 0,-25.0808821 -4.013713,2.15089 0,-5.396425 q 0.172844,-0.096 1.113856,-0.652945 0.941012,-0.576133 1.709189,-1.037034 0.768168,-0.460911 1.593957,-0.998633 0.84499,-0.556923 1.152267,-0.82578 l 5.742093,0 0,31.8408091 -7.297649,0 z"
       style="font-style:normal;font-variant:normal;font-weight:800;font-stretch:normal;font-size:medium;line-height:125%;font-family:Oswald;-inkscape-font-specification:'Oswald Ultra-Bold';letter-spacing:0px;word-spacing:0px;fill:none;fill-opacity:1;stroke:#dc0067;stroke-width:1.94929385;stroke-linecap:round;stroke-linejoin:round;stroke-miterlimit:4;stroke-dasharray:none;stroke-opacity:1"
       id="path11027"
       inkscape:connector-curvature="0" />
    <path
       d="m -55.853659,-1.1572337 q -2.15089,0 -3.706446,-0.4993116 -1.536345,-0.4993116 -2.458157,-1.3058904 -0.921801,-0.8257891 -1.459524,-2.1700904 -0.537722,-1.3635116 -0.710566,-2.7654339 -0.172834,-1.4019127 -0.172834,-3.360758 l 6.971182,0 q 0,2.0164567 0.172834,3.0342902 0.192044,1.0178238 0.614544,1.421123 0.384079,0.345678 1.075435,0.345678 0.096,0 0.211255,0 1.133056,-0.076802 1.401912,-1.421123 0.268866,-1.3635115 0.268866,-4.9355242 0,-1.152257 -0.096,-1.997247 -0.0768,-0.844989 -0.307267,-1.593966 -0.211255,-0.748968 -0.652955,-1.133057 -0.441701,-0.403289 -1.094646,-0.403289 -0.941012,0 -1.478734,0.710566 -0.537723,0.691356 -0.729767,2.285313 l -6.299026,0 0.729767,-18.705034 15.229053,0 0,5.838116 -9.50616,0 -0.40329,5.934148 q 0.307267,-0.441701 1.363512,-0.84499 1.056234,-0.403289 2.304523,-0.556933 0.556923,-0.0768 1.075435,-0.0768 2.842246,0 4.570636,2.304523 2.035667,2.727014 2.035667,8.142639 0,1.593967 -0.096,2.842246 -0.0768,1.2290788 -0.326478,2.4965682 -0.230445,1.2674893 -0.652945,2.1893006 -0.403289,0.9218016 -1.075445,1.7667913 -0.672155,0.8257891 -1.613167,1.344311 -0.921802,0.5185121 -2.227702,0.8065788 -1.3059,0.3072671 -2.957469,0.3072671 z"
       style="font-style:normal;font-variant:normal;font-weight:800;font-stretch:normal;font-size:medium;line-height:125%;font-family:Oswald;-inkscape-font-specification:'Oswald Ultra-Bold';letter-spacing:0px;word-spacing:0px;fill:none;fill-opacity:1;stroke:#dc0067;stroke-width:1.94929385;stroke-linecap:round;stroke-linejoin:round;stroke-miterlimit:4;stroke-dasharray:none;stroke-opacity:1"
       id="path11029"
       inkscape:connector-curvature="0" />
    <path
       d="m -43.40924,-1.8101789 0,-6.4526597 6.606303,0 0,6.4526597 -6.606303,0 z"
       style="font-style:normal;font-variant:normal;font-weight:800;font-stretch:normal;font-size:medium;line-height:125%;font-family:Oswald;-inkscape-font-specification:'Oswald Ultra-Bold';letter-spacing:0px;word-spacing:0px;fill:none;fill-opacity:1;stroke:#dc0067;stroke-width:1.94929385;stroke-linecap:round;stroke-linejoin:round;stroke-miterlimit:4;stroke-dasharray:none;stroke-opacity:1"
       id="path11031"
       inkscape:connector-curvature="0" />
    <path
       d="m -32.6356,-1.8101789 0,-5.127559 7.393671,-11.4649961 q 0.172844,-0.268866 0.710567,-1.075445 0.556923,-0.825789 0.806579,-1.248289 0.268866,-0.42249 0.710566,-1.190667 0.4417,-0.787379 0.652945,-1.344302 0.230455,-0.556923 0.40329,-1.248288 0.192044,-0.691356 0.192044,-1.305891 0,-1.28669 -0.652945,-1.843622 -0.460901,-0.384079 -1.075445,-0.384079 -0.268856,0 -0.556923,0.0768 -0.883401,0.211245 -1.325101,1.094645 -0.4417,0.8642 -0.4417,2.861456 l 0,1.68998 -6.990382,0 0,-1.843613 q 0,-2.1701 0.518512,-3.936901 0.537722,-1.786002 1.613167,-3.168714 1.075445,-1.401922 2.880657,-2.17009 1.824412,-0.768178 4.224948,-0.768178 4.378602,0 6.663915,2.227711 2.304523,2.227702 2.304523,6.279816 0,0.652955 -0.0768,1.28669 -0.0576,0.633745 -0.268856,1.3059 -0.211245,0.672156 -0.345678,1.152257 -0.134434,0.460911 -0.537723,1.209878 -0.384089,0.729767 -0.537722,1.075445 -0.153634,0.326478 -0.691356,1.133056 -0.537723,0.806579 -0.672156,1.017834 -0.115223,0.211245 -0.748967,1.113846 -0.633745,0.902611 -0.710557,1.017833 l -5.396425,7.9698053 9.06445,0 0,5.6076701 -17.111077,0 z"
       style="font-style:normal;font-variant:normal;font-weight:800;font-stretch:normal;font-size:medium;line-height:125%;font-family:Oswald;-inkscape-font-specification:'Oswald Ultra-Bold';letter-spacing:0px;word-spacing:0px;fill:none;fill-opacity:1;stroke:#dc0067;stroke-width:1.94929385;stroke-linecap:round;stroke-linejoin:round;stroke-miterlimit:4;stroke-dasharray:none;stroke-opacity:1"
       id="path11033"
       inkscape:connector-curvature="0" />
    <path
       inkscape:connector-curvature="0"
       id="path11035"
       d="m -205.64928,-33.393464 -22.26427,0.595954 -9.52509,9.525091 14.84284,-0.397303 -15.24014,15.2401476 7.22276,7.2227701 15.24016,-15.2401467 -0.39731,14.8428437 9.52509,-9.5250917 z"
       style="fill:none;fill-opacity:1;stroke:#ffb400;stroke-width:1.94929385;stroke-linecap:round;stroke-linejoin:round;stroke-miterlimit:4;stroke-dasharray:none" />
    <path
       inkscape:connector-curvature="0"
       id="path10808"
       style="font-style:normal;font-variant:normal;font-weight:800;font-stretch:normal;font-size:40px;line-height:125%;font-family:Oswald;-inkscape-font-specification:'Oswald Ultra-Bold';letter-spacing:0px;word-spacing:0px;fill:#40b6e7;fill-opacity:1;stroke:none;stroke-width:2;stroke-linecap:round;stroke-linejoin:round;stroke-miterlimit:4;stroke-dasharray:none;stroke-opacity:1"
       d="m -368.48625,-1.9016688 0,-31.5618062 14.10573,0 0,5.177812 -6.37709,0 0,7.214667 5.7489,0 0,5.368171 -5.7489,0 0,13.8011562 -7.72864,0 z" />
    <path
       inkscape:connector-curvature="0"
       id="path10810"
       style="font-style:normal;font-variant:normal;font-weight:800;font-stretch:normal;font-size:40px;line-height:125%;font-family:Oswald;-inkscape-font-specification:'Oswald Ultra-Bold';letter-spacing:0px;word-spacing:0px;fill:#40b6e7;fill-opacity:1;stroke:none;stroke-width:2;stroke-linecap:round;stroke-linejoin:round;stroke-miterlimit:4;stroke-dasharray:none;stroke-opacity:1"
       d="m -351.04921,-1.9016688 0,-31.5618062 14.10573,0 0,5.177812 -6.37709,0 0,7.214667 5.7489,0 0,5.368171 -5.7489,0 0,13.8011562 -7.72864,0 z" />
    <path
       inkscape:connector-curvature="0"
       id="path10812"
       style="font-style:normal;font-variant:normal;font-weight:800;font-stretch:normal;font-size:40px;line-height:125%;font-family:Oswald;-inkscape-font-specification:'Oswald Ultra-Bold';letter-spacing:0px;word-spacing:0px;fill:#40b6e7;fill-opacity:1;stroke:none;stroke-width:2;stroke-linecap:round;stroke-linejoin:round;stroke-miterlimit:4;stroke-dasharray:none;stroke-opacity:1"
       d="m -333.61217,-1.9016688 0,-31.5618062 5.48239,0 5.76793,13.515604 0,-13.515604 6.37709,0 0,31.5618062 -5.273,0 -5.72985,-14.8481422 0,14.8481422 -6.62456,0 z" />
    <path
       inkscape:connector-curvature="0"
       id="path10814"
       style="font-style:normal;font-variant:normal;font-weight:800;font-stretch:normal;font-size:40px;line-height:125%;font-family:Oswald;-inkscape-font-specification:'Oswald Ultra-Bold';letter-spacing:0px;word-spacing:0px;fill:#40b6e7;fill-opacity:1;stroke:none;stroke-width:2;stroke-linecap:round;stroke-linejoin:round;stroke-miterlimit:4;stroke-dasharray:none;stroke-opacity:1"
       d="m -297.40555,-2.0920271 q -1.90362,0.6852937 -4.60673,0.6852937 -2.70313,0 -4.60674,-0.6852937 -1.9036,-0.7043383 -3.02673,-2.0749356 -1.12313,-1.3896321 -1.61807,-3.2551648 -0.49493,-1.8845773 -0.49493,-4.4354035 l 0,-11.650082 q 0,-2.550836 0.49493,-4.416369 0.49494,-1.884567 1.61807,-3.255165 1.12313,-1.389632 3.02673,-2.074935 1.90361,-0.704338 4.60674,-0.704338 2.70311,0 4.60673,0.704338 1.92264,0.685303 3.04577,2.074935 1.14216,1.370598 1.6371,3.255165 0.51397,1.865533 0.51397,4.416369 l 0,11.650082 q 0,2.5508262 -0.51397,4.4354035 -0.49494,1.8655327 -1.6371,3.2551648 -1.12313,1.3705973 -3.04577,2.0749356 z m -4.60673,-4.6638415 q 0.62819,0 1.02794,-0.2665074 0.39976,-0.2855423 0.57108,-0.8185475 0.17133,-0.5330149 0.20941,-0.9708361 0.0571,-0.4378309 0.0571,-1.0850646 l 0,-15.5905398 q 0,-0.647224 -0.0571,-1.085055 -0.0381,-0.437831 -0.20941,-0.951802 -0.17132,-0.533014 -0.57108,-0.799522 -0.39975,-0.285532 -1.02794,-0.285532 -0.51398,0 -0.87566,0.209393 -0.36169,0.209393 -0.55205,0.494935 -0.17133,0.266508 -0.2665,0.761443 -0.0952,0.475901 -0.11422,0.799513 0,0.304577 0,0.856627 l 0,15.5905398 q 0,0.5330149 0,0.8566269 0.019,0.323612 0.11422,0.8185475 0.0951,0.4759103 0.2665,0.7614429 0.19036,0.2665074 0.55205,0.4949452 0.36168,0.2093931 0.87566,0.2093931 z" />
    <path
       inkscape:connector-curvature="0"
       id="path10816"
       style="font-style:normal;font-variant:normal;font-weight:800;font-stretch:normal;font-size:40px;line-height:125%;font-family:Oswald;-inkscape-font-specification:'Oswald Ultra-Bold';letter-spacing:0px;word-spacing:0px;fill:#40b6e7;fill-opacity:1;stroke:none;stroke-width:2;stroke-linecap:round;stroke-linejoin:round;stroke-miterlimit:4;stroke-dasharray:none;stroke-opacity:1"
       d="m -280.27309,-20.100159 2.01783,0 q 1.9036,0 2.62697,-1.085055 0.74241,-1.10409 0.74241,-3.121911 0,-1.941682 -0.70434,-2.988668 -0.68529,-1.06602 -2.28433,-1.06602 l -2.39854,0 0,8.261654 z m -7.72864,18.1984902 0,-31.5618062 9.42285,0 q 2.01783,0 3.55975,0.209393 1.56095,0.209393 2.96962,0.761443 1.42771,0.55205 2.32241,1.484816 0.91373,0.913731 1.44673,2.398548 0.53302,1.465771 0.53302,3.464557 0,3.179026 -0.79952,5.063603 -0.79952,1.884568 -3.06481,3.064807 l 4.30216,15.1146392 -8.09034,0 -3.2742,-13.9534452 -1.59903,0 0,13.9534452 -7.72864,0 z" />
    <path
       inkscape:connector-curvature="0"
       id="path10818"
       style="font-style:normal;font-variant:normal;font-weight:800;font-stretch:normal;font-size:40px;line-height:125%;font-family:Oswald;-inkscape-font-specification:'Oswald Ultra-Bold';letter-spacing:0px;word-spacing:0px;fill:#40b6e7;fill-opacity:1;stroke:none;stroke-width:2;stroke-linecap:round;stroke-linejoin:round;stroke-miterlimit:4;stroke-dasharray:none;stroke-opacity:1"
       d="m -263.71171,-1.9016688 0,-31.5618062 8.31877,0 q 3.25516,0 5.34913,0.55204 2.11301,0.533015 3.36939,1.789393 1.25638,1.256378 1.75132,3.102876 0.51397,1.827463 0.51397,4.625772 l 0,11.383574 q 0,2.8173341 -0.51397,4.6638319 -0.49494,1.827463 -1.75132,3.102886 -1.25638,1.2563784 -3.36939,1.8084184 -2.09397,0.5330149 -5.3301,0.5330149 l -8.3378,0 z m 7.72865,-5.3301004 0.72337,0 q 0.98987,0 1.56096,-0.1522886 0.59012,-0.1713234 0.87566,-0.5901194 0.30458,-0.4187961 0.38072,-0.9137315 0.0952,-0.5139703 0.0952,-1.4277023 l 0,-14.810072 q 0,-0.913731 -0.0952,-1.408667 -0.0761,-0.494935 -0.38072,-0.894696 -0.28554,-0.399752 -0.87566,-0.55204 -0.57109,-0.152289 -1.56096,-0.152289 l -0.72337,0 0,20.9016058 z" />
    <path
       inkscape:connector-curvature="0"
       id="path10801"
       style="font-style:normal;font-variant:normal;font-weight:800;font-stretch:normal;font-size:medium;line-height:125%;font-family:Oswald;-inkscape-font-specification:'Oswald Ultra-Bold';letter-spacing:0px;word-spacing:0px;fill:#ffc640;fill-opacity:1;stroke:none;stroke-width:2;stroke-linecap:round;stroke-linejoin:round;stroke-miterlimit:4;stroke-dasharray:none;stroke-opacity:1"
       d="m -190.18059,-1.3108672 q -2.72702,0 -4.66666,-0.7105565 -1.92043,-0.7297669 -3.05349,-2.1508898 -1.11385,-1.4211229 -1.63237,-3.3223472 -0.49931,-1.901234 -0.49931,-4.4746143 l 0,-11.503406 q 0,-2.592591 0.49931,-4.493825 0.51852,-1.901224 1.63237,-3.322347 1.13306,-1.421123 3.05349,-2.131689 1.93964,-0.729767 4.66666,-0.729767 2.17009,0 3.82167,0.460911 1.65157,0.4417 2.70781,1.248279 1.07544,0.787378 1.7476,1.978046 0.67215,1.171467 0.94101,2.515778 0.28807,1.344301 0.28807,2.995879 l 0,2.861447 -7.66254,0 0,-3.495191 q 0,-0.691357 -0.0384,-1.094656 -0.0384,-0.42249 -0.21125,-0.960212 -0.15363,-0.556933 -0.55693,-0.825789 -0.40329,-0.288067 -1.03703,-0.288067 -0.51851,0 -0.9026,0.211245 -0.36489,0.211255 -0.55693,0.499322 -0.19204,0.288056 -0.30727,0.768167 -0.096,0.480112 -0.13443,0.84499 -0.0192,0.364888 -0.0192,0.8642 l 0,15.6707537 q 0,0.4993116 0.0192,0.8834004 0.0384,0.3648786 0.15364,0.8449897 0.11522,0.4609008 0.30726,0.7681777 0.19205,0.2880569 0.55693,0.4993116 0.38409,0.1920445 0.8834,0.1920445 0.63374,0 1.03703,-0.2688661 0.4033,-0.2880667 0.55693,-0.8449897 0.17284,-0.556923 0.21125,-0.9602221 0.0384,-0.42249 0.0384,-1.113846 l 0,-3.6488247 7.66254,0 0,2.842236 q 0,1.6707789 -0.28807,3.0342904 -0.26886,1.3443013 -0.94101,2.5541792 -0.67216,1.209878 -1.7476,2.0356574 -1.05624,0.8065885 -2.70781,1.2866996 -1.65158,0.4801012 -3.82167,0.4801012 z" />
    <path
       inkscape:connector-curvature="0"
       id="path10803"
       style="font-style:normal;font-variant:normal;font-weight:800;font-stretch:normal;font-size:medium;line-height:125%;font-family:Oswald;-inkscape-font-specification:'Oswald Ultra-Bold';letter-spacing:0px;word-spacing:0px;fill:#ffc640;fill-opacity:1;stroke:none;stroke-width:2;stroke-linecap:round;stroke-linejoin:round;stroke-miterlimit:4;stroke-dasharray:none;stroke-opacity:1"
       d="m -162.89121,-2.0022231 q -1.92043,0.6913559 -4.64745,0.6913559 -2.72702,0 -4.64745,-0.6913559 -1.92044,-0.7105566 -3.0535,-2.0932687 -1.13305,-1.4019224 -1.63236,-3.2839461 -0.49931,-1.9012341 -0.49931,-4.4746141 l 0,-11.753063 q 0,-2.573379 0.49931,-4.455413 0.49931,-1.901224 1.63236,-3.283946 1.13306,-1.401913 3.0535,-2.093269 1.92043,-0.710566 4.64745,-0.710566 2.72702,0 4.64745,0.710566 1.93965,0.691356 3.0727,2.093269 1.15226,1.382722 1.65157,3.283946 0.51852,1.882034 0.51852,4.455413 l 0,11.753063 q 0,2.57338 -0.51852,4.4746141 -0.49931,1.8820237 -1.65157,3.2839461 -1.13305,1.3827121 -3.0727,2.0932687 z m -4.64745,-4.7050593 q 0.63375,0 1.03704,-0.2688661 0.40329,-0.2880667 0.57612,-0.8257891 0.17284,-0.5377225 0.21126,-0.9794227 0.0576,-0.4417003 0.0576,-1.0946455 l 0,-15.7283652 q 0,-0.652945 -0.0576,-1.094645 -0.0384,-0.4417 -0.21126,-0.960222 -0.17283,-0.537723 -0.57612,-0.806579 -0.40329,-0.288067 -1.03704,-0.288067 -0.51852,0 -0.8834,0.211245 -0.36489,0.211255 -0.55693,0.499322 -0.17283,0.268856 -0.26886,0.768167 -0.096,0.480112 -0.11522,0.806589 0,0.307267 0,0.86419 l 0,15.7283652 q 0,0.5377225 0,0.8641999 0.0192,0.3264678 0.11522,0.8257891 0.096,0.4801014 0.26886,0.768168 0.19204,0.2688661 0.55693,0.4993116 0.36488,0.2112548 0.8834,0.2112548 z" />
    <path
       inkscape:connector-curvature="0"
       id="path10805"
       style="font-style:normal;font-variant:normal;font-weight:800;font-stretch:normal;font-size:medium;line-height:125%;font-family:Oswald;-inkscape-font-specification:'Oswald Ultra-Bold';letter-spacing:0px;word-spacing:0px;fill:#ffc640;fill-opacity:1;stroke:none;stroke-width:2;stroke-linecap:round;stroke-linejoin:round;stroke-miterlimit:4;stroke-dasharray:none;stroke-opacity:1"
       d="m -153.40426,-1.8101787 0,-31.8408093 5.53086,0 5.81891,13.635087 0,-13.635087 6.43346,0 0,31.8408093 -5.3196,0 -5.78051,-14.9793873 0,14.9793873 -6.68312,0 z" />
    <path
       inkscape:connector-curvature="0"
       id="path10788"
       style="font-style:normal;font-variant:normal;font-weight:800;font-stretch:normal;font-size:medium;line-height:125%;font-family:Oswald;-inkscape-font-specification:'Oswald Ultra-Bold';letter-spacing:0px;word-spacing:0px;fill:#e44082;fill-opacity:1;stroke:none;stroke-width:2;stroke-linecap:round;stroke-linejoin:round;stroke-miterlimit:4;stroke-dasharray:none;stroke-opacity:1"
       d="m -129.19508,-1.8101787 0,-5.127559 7.39368,-11.4649963 q 0.17283,-0.268866 0.71056,-1.075445 0.55693,-0.825789 0.80658,-1.248289 0.26886,-0.42249 0.71056,-1.190667 0.4417,-0.787379 0.65295,-1.344302 0.23045,-0.556923 0.4033,-1.248288 0.19203,-0.691356 0.19203,-1.305891 0,-1.28669 -0.65294,-1.843622 -0.46091,-0.384079 -1.07545,-0.384079 -0.26886,0 -0.55692,0.0768 -0.8834,0.211245 -1.3251,1.094645 -0.4417,0.8642 -0.4417,2.861456 l 0,1.68998 -6.99039,0 0,-1.843613 q 0,-2.1701 0.51852,-3.936901 0.53772,-1.786002 1.61316,-3.168714 1.07545,-1.401922 2.88066,-2.17009 1.82441,-0.768178 4.22496,-0.768178 4.37859,0 6.6639,2.227711 2.30453,2.227702 2.30453,6.279816 0,0.652955 -0.0768,1.28669 -0.0576,0.633745 -0.26886,1.3059 -0.21125,0.672156 -0.34568,1.152257 -0.13443,0.460911 -0.53772,1.209878 -0.38409,0.729767 -0.53772,1.075445 -0.15364,0.326478 -0.69136,1.133056 -0.53772,0.806579 -0.67216,1.017834 -0.11522,0.211245 -0.74896,1.113846 -0.63375,0.902611 -0.71056,1.017833 l -5.39643,7.9698055 9.06445,0 0,5.6076701 -17.11107,0 z" />
    <path
       inkscape:connector-curvature="0"
       id="path10790"
       style="font-style:normal;font-variant:normal;font-weight:800;font-stretch:normal;font-size:medium;line-height:125%;font-family:Oswald;-inkscape-font-specification:'Oswald Ultra-Bold';letter-spacing:0px;word-spacing:0px;fill:#e44082;fill-opacity:1;stroke:none;stroke-width:2;stroke-linecap:round;stroke-linejoin:round;stroke-miterlimit:4;stroke-dasharray:none;stroke-opacity:1"
       d="m -99.140258,-1.1572336 q -4.301782,0 -6.625512,-2.4389466 -2.30452,-2.4389565 -2.30452,-6.5870928 l 0,-14.691331 q 0,-4.32098 2.2277,-6.817548 2.24691,-2.496558 6.702332,-2.496558 4.416988,0 6.644699,2.515768 2.246903,2.496568 2.246903,6.798338 l 0,14.691331 q 0,4.0713244 -2.342925,6.548682 -2.342934,2.4773574 -6.548677,2.4773574 z M -100.619,-10.413728 q 0,2.7078126 1.478742,2.7078126 1.47873,0 1.47873,-2.7078126 l 0,-14.21122 q 0,-0.0192 0,-0.288067 0,-0.288066 0,-0.403289 0,-0.134433 -0.0192,-0.4225 -0.0192,-0.288057 -0.0576,-0.44169 -0.0384,-0.172844 -0.11523,-0.4225 -0.0576,-0.268866 -0.17284,-0.403289 -0.11522,-0.153634 -0.26886,-0.307277 -0.13443,-0.153634 -0.36488,-0.211245 -0.21125,-0.0768 -0.48011,-0.0768 -0.34567,0 -0.61454,0.115223 -0.268862,0.096 -0.422492,0.345678 -0.15364,0.249656 -0.26887,0.460901 -0.096,0.192044 -0.13443,0.576133 -0.0384,0.364879 -0.0384,0.518522 0,0.0768 0,0.230446 0,0.134433 0,0.326477 0,0.384089 0,0.40329 l 0,14.211219 z" />
    <path
       inkscape:connector-curvature="0"
       id="path10792"
       style="font-style:normal;font-variant:normal;font-weight:800;font-stretch:normal;font-size:medium;line-height:125%;font-family:Oswald;-inkscape-font-specification:'Oswald Ultra-Bold';letter-spacing:0px;word-spacing:0px;fill:#e44082;fill-opacity:1;stroke:none;stroke-width:2;stroke-linecap:round;stroke-linejoin:round;stroke-miterlimit:4;stroke-dasharray:none;stroke-opacity:1"
       d="m -80.396818,-1.8101787 0,-25.0808823 -4.013713,2.15089 0,-5.396425 q 0.172844,-0.096 1.113856,-0.652945 0.941012,-0.576133 1.709189,-1.037034 0.768168,-0.460911 1.593957,-0.998633 0.84499,-0.556923 1.152267,-0.82578 l 5.742093,0 0,31.8408093 -7.297649,0 z" />
    <path
       inkscape:connector-curvature="0"
       id="path10794"
       style="font-style:normal;font-variant:normal;font-weight:800;font-stretch:normal;font-size:medium;line-height:125%;font-family:Oswald;-inkscape-font-specification:'Oswald Ultra-Bold';letter-spacing:0px;word-spacing:0px;fill:#e44082;fill-opacity:1;stroke:none;stroke-width:2;stroke-linecap:round;stroke-linejoin:round;stroke-miterlimit:4;stroke-dasharray:none;stroke-opacity:1"
       d="m -55.853659,-1.1572336 q -2.15089,0 -3.706446,-0.4993115 -1.536345,-0.4993116 -2.458157,-1.3058904 -0.921801,-0.8257891 -1.459524,-2.1700904 -0.537722,-1.3635116 -0.710566,-2.765434 -0.172834,-1.4019126 -0.172834,-3.3607581 l 6.971182,0 q 0,2.0164569 0.172834,3.0342904 0.192044,1.0178238 0.614544,1.421123 0.384079,0.345678 1.075435,0.345678 0.096,0 0.211255,0 1.133056,-0.076802 1.401912,-1.421123 0.268866,-1.3635115 0.268866,-4.9355244 0,-1.152257 -0.096,-1.997247 -0.0768,-0.844989 -0.307267,-1.593966 -0.211255,-0.748968 -0.652955,-1.133057 -0.441701,-0.403289 -1.094646,-0.403289 -0.941012,0 -1.478734,0.710566 -0.537723,0.691356 -0.729767,2.285313 l -6.299026,0 0.729767,-18.705034 15.229053,0 0,5.838116 -9.50616,0 -0.40329,5.934148 q 0.307267,-0.441701 1.363512,-0.84499 1.056234,-0.403289 2.304523,-0.556933 0.556923,-0.0768 1.075435,-0.0768 2.842246,0 4.570636,2.304523 2.035667,2.727014 2.035667,8.142639 0,1.593967 -0.096,2.842246 -0.0768,1.229079 -0.326478,2.4965684 -0.230445,1.2674893 -0.652945,2.1893006 -0.403289,0.9218016 -1.075445,1.7667913 -0.672155,0.8257891 -1.613167,1.344311 -0.921802,0.5185121 -2.227702,0.8065787 -1.3059,0.3072672 -2.957469,0.3072672 z" />
    <path
       inkscape:connector-curvature="0"
       id="path10796"
       style="font-style:normal;font-variant:normal;font-weight:800;font-stretch:normal;font-size:medium;line-height:125%;font-family:Oswald;-inkscape-font-specification:'Oswald Ultra-Bold';letter-spacing:0px;word-spacing:0px;fill:#e44082;fill-opacity:1;stroke:none;stroke-width:2;stroke-linecap:round;stroke-linejoin:round;stroke-miterlimit:4;stroke-dasharray:none;stroke-opacity:1"
       d="m -43.40924,-1.8101787 0,-6.4526597 6.606303,0 0,6.4526597 -6.606303,0 z" />
    <path
       inkscape:connector-curvature="0"
       id="path10798"
       style="font-style:normal;font-variant:normal;font-weight:800;font-stretch:normal;font-size:medium;line-height:125%;font-family:Oswald;-inkscape-font-specification:'Oswald Ultra-Bold';letter-spacing:0px;word-spacing:0px;fill:#e44082;fill-opacity:1;stroke:none;stroke-width:2;stroke-linecap:round;stroke-linejoin:round;stroke-miterlimit:4;stroke-dasharray:none;stroke-opacity:1"
       d="m -32.6356,-1.8101787 0,-5.127559 7.393671,-11.4649963 q 0.172844,-0.268866 0.710567,-1.075445 0.556923,-0.825789 0.806579,-1.248289 0.268866,-0.42249 0.710566,-1.190667 0.4417,-0.787379 0.652945,-1.344302 0.230455,-0.556923 0.40329,-1.248288 0.192044,-0.691356 0.192044,-1.305891 0,-1.28669 -0.652945,-1.843622 -0.460901,-0.384079 -1.075445,-0.384079 -0.268856,0 -0.556923,0.0768 -0.883401,0.211245 -1.325101,1.094645 -0.4417,0.8642 -0.4417,2.861456 l 0,1.68998 -6.990382,0 0,-1.843613 q 0,-2.1701 0.518512,-3.936901 0.537722,-1.786002 1.613167,-3.168714 1.075445,-1.401922 2.880657,-2.17009 1.824412,-0.768178 4.224948,-0.768178 4.378602,0 6.663915,2.227711 2.304523,2.227702 2.304523,6.279816 0,0.652955 -0.0768,1.28669 -0.0576,0.633745 -0.268856,1.3059 -0.211245,0.672156 -0.345678,1.152257 -0.134434,0.460911 -0.537723,1.209878 -0.384089,0.729767 -0.537722,1.075445 -0.153634,0.326478 -0.691356,1.133056 -0.537723,0.806579 -0.672156,1.017834 -0.115223,0.211245 -0.748967,1.113846 -0.633745,0.902611 -0.710557,1.017833 l -5.396425,7.9698055 9.06445,0 0,5.6076701 -17.111077,0 z" />
    <path
       style="fill:#ffc640;fill-opacity:1;stroke:none;stroke-width:2;stroke-linecap:round;stroke-linejoin:round;stroke-miterlimit:4;stroke-dasharray:none"
       d="m -205.64928,-33.393464 -22.26427,0.595954 -9.52509,9.525091 14.84284,-0.397303 -15.24014,15.2401478 7.22276,7.2227701 15.24016,-15.2401469 -0.39731,14.8428439 9.52509,-9.5250919 z"
       id="polygon5543"
       inkscape:connector-curvature="0" />
  </g>
</svg>
