<?xml version="1.0" encoding="UTF-8" standalone="no"?>
<!-- Created with Inkscape (http://www.inkscape.org/) -->

<svg
   xmlns:dc="http://purl.org/dc/elements/1.1/"
   xmlns:cc="http://creativecommons.org/ns#"
   xmlns:rdf="http://www.w3.org/1999/02/22-rdf-syntax-ns#"
   xmlns:svg="http://www.w3.org/2000/svg"
   xmlns="http://www.w3.org/2000/svg"
   xmlns:sodipodi="http://sodipodi.sourceforge.net/DTD/sodipodi-0.dtd"
   xmlns:inkscape="http://www.inkscape.org/namespaces/inkscape"
   width="210mm"
   height="297mm"
   viewBox="0 0 744.09448819 1052.3622047"
   id="svg2"
   version="1.1"
   inkscape:version="0.91 r13725"
   sodipodi:docname="ffnord-con-2015.2-flyer.svg">
  <defs
     id="defs4" />
  <sodipodi:namedview
     id="base"
     pagecolor="#ffffff"
     bordercolor="#666666"
     borderopacity="1.0"
     inkscape:pageopacity="0.0"
     inkscape:pageshadow="2"
     inkscape:zoom="1"
     inkscape:cx="103.77941"
     inkscape:cy="488.84407"
     inkscape:document-units="px"
     inkscape:current-layer="layer1"
     showgrid="false"
     inkscape:window-width="2560"
     inkscape:window-height="1417"
     inkscape:window-x="0"
     inkscape:window-y="23"
     inkscape:window-maximized="0" />
  <metadata
     id="metadata7">
    <rdf:RDF>
      <cc:Work
         rdf:about="">
        <dc:format>image/svg+xml</dc:format>
        <dc:type
           rdf:resource="http://purl.org/dc/dcmitype/StillImage" />
        <dc:title />
      </cc:Work>
    </rdf:RDF>
  </metadata>
  <g
     inkscape:label="Layer 1"
     inkscape:groupmode="layer"
     id="layer1">
    <rect
       style="color:#000000;font-style:normal;font-weight:normal;font-size:147.46354675px;line-height:125%;font-family:Sans;letter-spacing:0px;word-spacing:0px;clip-rule:nonzero;display:inline;overflow:visible;visibility:visible;opacity:1;isolation:auto;mix-blend-mode:normal;color-interpolation:sRGB;color-interpolation-filters:linearRGB;solid-color:#000000;solid-opacity:1;fill:#ffffff;fill-opacity:1;fill-rule:nonzero;stroke:none;stroke-width:1;stroke-linecap:round;stroke-linejoin:round;stroke-miterlimit:4;stroke-dasharray:none;stroke-dashoffset:0;stroke-opacity:1;color-rendering:auto;image-rendering:auto;shape-rendering:auto;text-rendering:auto;enable-background:accumulate"
       id="rect10009"
       width="744.09448"
       height="1052.3622"
       x="0"
       y="2.2107222e-05" />
    <path
       id="circle5678"
       d="M 462.9408,60.932871 A 220.49287,220.49287 0 0 0 255.24548,208.11061 150.31792,150.31792 0 0 0 210.97791,201.28249 150.31792,150.31792 0 0 0 60.659548,351.60085 150.31792,150.31792 0 0 0 210.97791,501.9192 150.31792,150.31792 0 0 0 322.97205,451.58717 220.49287,220.49287 0 0 0 462.9408,501.9192 220.49287,220.49287 0 0 0 683.43494,281.42702 220.49287,220.49287 0 0 0 462.9408,60.932871 Z m 0,30.353514 A 190.13927,190.13927 0 0 1 653.08142,281.42702 190.13927,190.13927 0 0 1 462.9408,471.56569 190.13927,190.13927 0 0 1 340.75525,427.08327 150.31792,150.31792 0 0 0 350.93884,405.55983 167.38731,167.38731 0 0 0 462.9408,448.81374 167.38731,167.38731 0 0 0 630.32947,281.42702 167.38731,167.38731 0 0 0 462.9408,114.03835 167.38731,167.38731 0 0 0 302.88806,232.93288 150.31792,150.31792 0 0 0 283.22009,219.96413 190.13927,190.13927 0 0 1 462.9408,91.286385 Z m 0,28.457035 A 161.68246,161.68246 0 0 1 624.62439,281.42702 161.68246,161.68246 0 0 1 462.9408,443.10866 161.68246,161.68246 0 0 1 353.19861,399.886 150.31792,150.31792 0 0 0 361.29431,351.60085 150.31792,150.31792 0 0 0 307.65369,236.88405 161.68246,161.68246 0 0 1 462.9408,119.74342 Z m -251.96289,86.27735 a 145.57964,145.57964 0 0 1 42.82031,6.45117 220.49287,220.49287 0 0 0 -11.34961,68.95508 A 220.49287,220.49287 0 0 0 319.43689,448.4817 145.57964,145.57964 0 0 1 210.97791,497.18092 145.57964,145.57964 0 0 1 65.39783,351.60085 145.57964,145.57964 0 0 1 210.97791,206.02077 Z m 70.63671,18.33789 a 145.57964,145.57964 0 0 1 19.78711,13.41406 167.38731,167.38731 0 0 0 -5.84765,43.6543 167.38731,167.38731 0 0 0 51.62695,120.83203 145.57964,145.57964 0 0 1 -9.95117,21.59375 190.13927,190.13927 0 0 1 -64.42774,-142.42578 190.13927,190.13927 0 0 1 8.8125,-57.06836 z m 24.78711,17.42578 a 145.57964,145.57964 0 0 1 50.1543,109.81641 145.57964,145.57964 0 0 1 -7.19336,44.71093 161.68246,161.68246 0 0 1 -48.10351,-114.88476 161.68246,161.68246 0 0 1 5.14257,-39.64258 z"
       style="color:#000000;clip-rule:nonzero;display:inline;overflow:visible;visibility:visible;opacity:1;isolation:auto;mix-blend-mode:normal;color-interpolation:sRGB;color-interpolation-filters:linearRGB;solid-color:#000000;solid-opacity:1;fill:#e44082;fill-opacity:1;fill-rule:nonzero;stroke:#dc0067;stroke-width:2;stroke-linecap:round;stroke-linejoin:round;stroke-miterlimit:4;stroke-dasharray:none;stroke-dashoffset:0;stroke-opacity:1;color-rendering:auto;image-rendering:auto;shape-rendering:auto;text-rendering:auto;enable-background:accumulate"
       inkscape:connector-curvature="0" />
    <path
       transform="matrix(7.2394707,-6.8550618e-8,-1.9930204e-8,6.8620118,-37.950084,16.631827)"
       style="fill:#ffc640;fill-opacity:1;stroke:#ffb400;stroke-width:0.28375979;stroke-linecap:round;stroke-linejoin:round;stroke-miterlimit:4;stroke-dasharray:none;stroke-opacity:1"
       d="m 31,44 -5,0 4,4 -8,0 0,4 8,0 -4,4 5,0 6,-6 z"
       id="polygon5543-0" />
    <path
       transform="matrix(-13.00375,-1.2313263e-7,3.5799218e-8,12.325747,846.17214,-330.81634)"
       style="fill:#ffc640;fill-opacity:1;stroke:#ffb400;stroke-width:0.15797526;stroke-linecap:round;stroke-linejoin:round;stroke-miterlimit:4;stroke-dasharray:none;stroke-opacity:1"
       d="m 31,44 -5,0 4,4 -8,0 0,4 8,0 -4,4 5,0 6,-6 z"
       id="polygon5747" />
    <path
       inkscape:connector-curvature="0"
       id="path7907"
       style="font-style:normal;font-variant:normal;font-weight:800;font-stretch:normal;font-size:medium;line-height:125%;font-family:Oswald;-inkscape-font-specification:'Oswald Ultra-Bold';letter-spacing:0px;word-spacing:0px;fill:#40b6e7;fill-opacity:1;stroke:#009ee0;stroke-width:2;stroke-linecap:round;stroke-linejoin:round;stroke-miterlimit:4;stroke-dasharray:none;stroke-opacity:1"
       d="m 137.52496,664.60376 0,-119.38211 53.35473,0 0,19.585 -24.12123,0 0,27.2894 21.74511,0 0,20.30504 -21.74511,0 0,52.20267 -29.2335,0 z" />
    <path
       inkscape:connector-curvature="0"
       id="path7909"
       style="font-style:normal;font-variant:normal;font-weight:800;font-stretch:normal;font-size:medium;line-height:125%;font-family:Oswald;-inkscape-font-specification:'Oswald Ultra-Bold';letter-spacing:0px;word-spacing:0px;fill:#40b6e7;fill-opacity:1;stroke:#009ee0;stroke-width:2;stroke-linecap:round;stroke-linejoin:round;stroke-miterlimit:4;stroke-dasharray:none;stroke-opacity:1"
       d="m 203.48034,664.60376 0,-119.38211 53.35473,0 0,19.585 -24.12123,0 0,27.2894 21.74511,0 0,20.30504 -21.74511,0 0,52.20267 -29.2335,0 z" />
    <path
       inkscape:connector-curvature="0"
       id="path7911"
       style="font-style:normal;font-variant:normal;font-weight:800;font-stretch:normal;font-size:medium;line-height:125%;font-family:Oswald;-inkscape-font-specification:'Oswald Ultra-Bold';letter-spacing:0px;word-spacing:0px;fill:#40b6e7;fill-opacity:1;stroke:#009ee0;stroke-width:2;stroke-linecap:round;stroke-linejoin:round;stroke-miterlimit:4;stroke-dasharray:none;stroke-opacity:1"
       d="m 269.43572,664.60376 0,-119.38211 20.73706,0 21.81711,51.12262 0,-51.12262 24.12124,0 0,119.38211 -19.94502,0 -21.67311,-56.16287 0,56.16287 -25.05728,0 z" />
    <path
       inkscape:connector-curvature="0"
       id="path7913"
       style="font-style:normal;font-variant:normal;font-weight:800;font-stretch:normal;font-size:medium;line-height:125%;font-family:Oswald;-inkscape-font-specification:'Oswald Ultra-Bold';letter-spacing:0px;word-spacing:0px;fill:#40b6e7;fill-opacity:1;stroke:#009ee0;stroke-width:2;stroke-linecap:round;stroke-linejoin:round;stroke-miterlimit:4;stroke-dasharray:none;stroke-opacity:1"
       d="m 406.38672,663.88372 q -7.20037,2.59214 -17.4249,2.59214 -10.22452,0 -17.42489,-2.59214 -7.20037,-2.66413 -11.44858,-7.8484 -4.24822,-5.25627 -6.12032,-12.31263 -1.87209,-7.12836 -1.87209,-16.77686 l 0,-44.06625 q 0,-9.6485 1.87209,-16.70486 1.8721,-7.12836 6.12032,-12.31263 4.24821,-5.25627 11.44858,-7.8484 7.20037,-2.66414 17.42489,-2.66414 10.22453,0 17.4249,2.66414 7.27237,2.59213 11.52059,7.8484 4.32022,5.18427 6.19231,12.31263 1.9441,7.05636 1.9441,16.70486 l 0,44.06625 q 0,9.6485 -1.9441,16.77686 -1.87209,7.05636 -6.19231,12.31263 -4.24822,5.18427 -11.52059,7.8484 z m -17.4249,-17.6409 q 2.37613,0 3.8882,-1.00805 1.51208,-1.08006 2.16011,-3.09616 0.64804,-2.0161 0.79204,-3.67219 0.21602,-1.65608 0.21602,-4.10421 l 0,-58.97102 q 0,-2.44812 -0.21602,-4.10421 -0.144,-1.65608 -0.79204,-3.60018 -0.64803,-2.0161 -2.16011,-3.02415 -1.51207,-1.08006 -3.8882,-1.08006 -1.9441,0 -3.31217,0.79204 -1.36807,0.79204 -2.0881,1.8721 -0.64804,1.00805 -1.00805,2.88014 -0.36002,1.8001 -0.43203,3.02416 0,1.15206 0,3.24016 l 0,58.97102 q 0,2.01611 0,3.24017 0.072,1.22406 0.43203,3.09616 0.36001,1.80009 1.00805,2.88014 0.72003,1.00806 2.0881,1.8721 1.36807,0.79204 3.31217,0.79204 z" />
    <path
       inkscape:connector-curvature="0"
       id="path7915"
       style="font-style:normal;font-variant:normal;font-weight:800;font-stretch:normal;font-size:medium;line-height:125%;font-family:Oswald;-inkscape-font-specification:'Oswald Ultra-Bold';letter-spacing:0px;word-spacing:0px;fill:#40b6e7;fill-opacity:1;stroke:#009ee0;stroke-width:2;stroke-linecap:round;stroke-linejoin:round;stroke-miterlimit:4;stroke-dasharray:none;stroke-opacity:1"
       d="m 471.19004,595.76824 7.63239,0 q 7.20037,0 9.93651,-4.10421 2.80814,-4.17622 2.80814,-11.80861 0,-7.34437 -2.66413,-11.30458 -2.59214,-4.0322 -8.64045,-4.0322 l -9.07246,0 0,31.2496 z m -29.2335,68.83552 0,-119.38211 35.64183,0 q 7.63239,0 13.46469,0.79204 5.9043,0.79204 11.23257,2.88015 5.40028,2.0881 8.78445,5.61629 3.45618,3.45617 5.47228,9.07246 2.0161,5.54428 2.0161,13.10467 0,12.02462 -3.02415,19.15298 -3.02416,7.12837 -11.59259,11.59259 l 16.27283,57.17093 -30.60157,0 -12.38463,-52.7787 -6.04831,0 0,52.7787 -29.2335,0 z" />
    <path
       inkscape:connector-curvature="0"
       id="path7917"
       style="font-style:normal;font-variant:normal;font-weight:800;font-stretch:normal;font-size:medium;line-height:125%;font-family:Oswald;-inkscape-font-specification:'Oswald Ultra-Bold';letter-spacing:0px;word-spacing:0px;fill:#40b6e7;fill-opacity:1;stroke:#009ee0;stroke-width:2;stroke-linecap:round;stroke-linejoin:round;stroke-miterlimit:4;stroke-dasharray:none;stroke-opacity:1"
       d="m 533.83325,664.60376 0,-119.38211 31.46561,0 q 12.31263,0 20.23304,2.08811 7.99241,2.0161 12.74465,6.76834 4.75224,4.75225 6.62434,11.7366 1.9441,6.91236 1.9441,17.4969 l 0,43.0582 q 0,10.65655 -1.9441,17.64091 -1.8721,6.91235 -6.62434,11.7366 -4.75224,4.75224 -12.74465,6.84035 -7.92041,2.0161 -20.16103,2.0161 l -31.53762,0 z m 29.2335,-20.16103 2.73614,0 q 3.74419,0 5.9043,-0.57603 2.23211,-0.64803 3.31217,-2.23212 1.15206,-1.58408 1.44007,-3.45617 0.36002,-1.9441 0.36002,-5.40028 l 0,-56.01887 q 0,-3.45617 -0.36002,-5.32827 -0.28801,-1.87209 -1.44007,-3.38417 -1.08006,-1.51208 -3.31217,-2.08811 -2.16011,-0.57603 -5.9043,-0.57603 l -2.73614,0 0,79.06005 z" />
    <path
       d="m 237.35814,743.0726 q -5.73332,0 -9.81125,-1.4939 -4.03755,-1.53427 -6.4197,-4.52205 -2.34178,-2.98779 -3.43192,-6.98497 -1.04976,-3.99717 -1.04976,-9.40749 l 0,-24.18492 q 0,-5.4507 1.04976,-9.44787 1.09014,-3.99718 3.43192,-6.98497 2.38215,-2.98778 6.4197,-4.48168 4.07793,-1.53427 9.81125,-1.53427 4.56243,0 8.03473,0.96902 3.47229,0.92863 5.69294,2.6244 2.26103,1.6554 3.67417,4.15868 1.41315,2.46291 1.9784,5.28919 0.60564,2.82629 0.60564,6.29858 l 0,6.01595 -16.10983,0 0,-7.34834 q 0,-1.45352 -0.0808,-2.3014 -0.0807,-0.88827 -0.44413,-2.01878 -0.32301,-1.17089 -1.17089,-1.73615 -0.84789,-0.60563 -2.18028,-0.60563 -1.09014,0 -1.89765,0.44413 -0.76713,0.44413 -1.17089,1.04976 -0.40375,0.60564 -0.64601,1.61503 -0.20187,1.00938 -0.28262,1.77652 -0.0404,0.76713 -0.0404,1.8169 l 0,32.94641 q 0,1.04976 0.0404,1.85727 0.0807,0.76713 0.323,1.77652 0.24225,0.96901 0.64601,1.61502 0.40375,0.60563 1.17089,1.04977 0.80751,0.40375 1.85727,0.40375 1.33239,0 2.18028,-0.56526 0.84788,-0.60563 1.17089,-1.77652 0.36338,-1.17089 0.44413,-2.01877 0.0808,-0.88827 0.0808,-2.34178 l 0,-7.67135 16.10983,0 0,5.97558 q 0,3.51266 -0.60564,6.37933 -0.56525,2.82628 -1.9784,5.36994 -1.41314,2.54365 -3.67417,4.2798 -2.22065,1.69577 -5.69294,2.70516 -3.4723,1.00939 -8.03473,1.00939 z"
       style="font-style:normal;font-variant:normal;font-weight:800;font-stretch:normal;font-size:medium;line-height:125%;font-family:Oswald;-inkscape-font-specification:'Oswald Ultra-Bold';letter-spacing:0px;word-spacing:0px;fill:#ffc640;fill-opacity:1;stroke:#ffb400;stroke-width:2;stroke-linecap:round;stroke-linejoin:round;stroke-miterlimit:4;stroke-dasharray:none;stroke-opacity:1"
       id="path7920"
       inkscape:connector-curvature="0" />
    <path
       d="m 294.73173,741.61908 q -4.03755,1.45352 -9.77087,1.45352 -5.73332,0 -9.77087,-1.45352 -4.03755,-1.49389 -6.41971,-4.40093 -2.38215,-2.94741 -3.43191,-6.90421 -1.04977,-3.99718 -1.04977,-9.40749 l 0,-24.70981 q 0,-5.41032 1.04977,-9.36712 1.04976,-3.99718 3.43191,-6.90421 2.38216,-2.94741 6.41971,-4.40093 4.03755,-1.4939 9.77087,-1.4939 5.73332,0 9.77087,1.4939 4.07793,1.45352 6.46008,4.40093 2.42253,2.90703 3.4723,6.90421 1.09014,3.9568 1.09014,9.36712 l 0,24.70981 q 0,5.41031 -1.09014,9.40749 -1.04977,3.9568 -3.4723,6.90421 -2.38215,2.90704 -6.46008,4.40093 z m -9.77087,-9.892 q 1.33239,0 2.18028,-0.56526 0.84788,-0.60563 1.21126,-1.73614 0.36338,-1.13052 0.44413,-2.05915 0.12113,-0.92864 0.12113,-2.30141 l 0,-33.06754 q 0,-1.37276 -0.12113,-2.3014 -0.0808,-0.92864 -0.44413,-2.01877 -0.36338,-1.13052 -1.21126,-1.69578 -0.84789,-0.60563 -2.18028,-0.60563 -1.09014,0 -1.85727,0.44413 -0.76714,0.44413 -1.17089,1.04976 -0.36338,0.56526 -0.56526,1.61503 -0.20188,1.00938 -0.24225,1.69577 0,0.646 0,1.81689 l 0,33.06754 q 0,1.13052 0,1.8169 0.0404,0.68638 0.24225,1.73615 0.20188,1.00938 0.56526,1.61502 0.40375,0.56525 1.17089,1.04976 0.76713,0.44413 1.85727,0.44413 z"
       style="font-style:normal;font-variant:normal;font-weight:800;font-stretch:normal;font-size:medium;line-height:125%;font-family:Oswald;-inkscape-font-specification:'Oswald Ultra-Bold';letter-spacing:0px;word-spacing:0px;fill:#ffc640;fill-opacity:1;stroke:#ffb400;stroke-width:2;stroke-linecap:round;stroke-linejoin:round;stroke-miterlimit:4;stroke-dasharray:none;stroke-opacity:1"
       id="path7922"
       inkscape:connector-curvature="0" />
    <path
       d="m 314.67723,742.02283 0,-66.94258 11.62814,0 12.23378,28.66661 0,-28.66661 13.5258,0 0,66.94258 -11.18402,0 -12.15303,-31.49289 0,31.49289 -14.05067,0 z"
       style="font-style:normal;font-variant:normal;font-weight:800;font-stretch:normal;font-size:medium;line-height:125%;font-family:Oswald;-inkscape-font-specification:'Oswald Ultra-Bold';letter-spacing:0px;word-spacing:0px;fill:#ffc640;fill-opacity:1;stroke:#ffb400;stroke-width:2;stroke-linecap:round;stroke-linejoin:round;stroke-miterlimit:4;stroke-dasharray:none;stroke-opacity:1"
       id="path7924"
       inkscape:connector-curvature="0" />
    <path
       d="m 365.57495,742.02283 0,-10.78026 15.54457,-24.10417 q 0.36338,-0.56526 1.49389,-2.26103 1.17089,-1.73615 1.69577,-2.62441 0.56526,-0.88826 1.4939,-2.50328 0.92863,-1.65539 1.37276,-2.82628 0.48451,-1.17089 0.84789,-2.62441 0.40376,-1.45352 0.40376,-2.74554 0,-2.70516 -1.37277,-3.87604 -0.96901,-0.80752 -2.26103,-0.80752 -0.56526,0 -1.17089,0.16151 -1.85727,0.44413 -2.78591,2.3014 -0.92864,1.8169 -0.92864,6.01595 l 0,3.55305 -14.69668,0 0,-3.87605 q 0,-4.56244 1.09014,-8.27698 1.13051,-3.75492 3.39154,-6.66196 2.26103,-2.94741 6.05633,-4.56243 3.83567,-1.61502 8.88261,-1.61502 9.20561,0 14.0103,4.68356 4.84506,4.68356 4.84506,13.20279 0,1.37276 -0.1615,2.70516 -0.12113,1.33239 -0.56526,2.74553 -0.44413,1.41314 -0.72676,2.42253 -0.28263,0.96901 -1.13051,2.54366 -0.80751,1.53427 -1.13052,2.26102 -0.323,0.68639 -1.45352,2.38216 -1.13051,1.69577 -1.41314,2.1399 -0.24225,0.44413 -1.57464,2.34178 -1.3324,1.89765 -1.4939,2.1399 l -11.34551,16.75584 19.05723,0 0,11.78964 -35.97457,0 z"
       style="font-style:normal;font-variant:normal;font-weight:800;font-stretch:normal;font-size:medium;line-height:125%;font-family:Oswald;-inkscape-font-specification:'Oswald Ultra-Bold';letter-spacing:0px;word-spacing:0px;fill:#e44082;fill-opacity:1;stroke:#dc0067;stroke-width:2;stroke-linecap:round;stroke-linejoin:round;stroke-miterlimit:4;stroke-dasharray:none;stroke-opacity:1"
       id="path7927"
       inkscape:connector-curvature="0" />
    <path
       d="m 428.76262,743.3956 q -9.04412,0 -13.92955,-5.12769 -4.84506,-5.12769 -4.84506,-13.8488 l 0,-30.88726 q 0,-9.08449 4.68356,-14.3333 4.72393,-5.24882 14.09105,-5.24882 9.28636,0 13.96992,5.28919 4.72394,5.24882 4.72394,14.29293 l 0,30.88726 q 0,8.55961 -4.92582,13.76805 -4.92581,5.20844 -13.76804,5.20844 z m -3.10892,-19.46099 q 0,5.69294 3.10892,5.69294 3.10891,0 3.10891,-5.69294 l 0,-29.87788 q 0,-0.0404 0,-0.60563 0,-0.60563 0,-0.84788 0,-0.28263 -0.0404,-0.88826 -0.0404,-0.60564 -0.12113,-0.92864 -0.0808,-0.36338 -0.24225,-0.88826 -0.12113,-0.56526 -0.36338,-0.84789 -0.24226,-0.323 -0.56526,-0.64601 -0.28263,-0.323 -0.76714,-0.44413 -0.44413,-0.1615 -1.00938,-0.1615 -0.72676,0 -1.29202,0.24225 -0.56526,0.20188 -0.88826,0.72676 -0.323,0.52489 -0.56526,0.96902 -0.20187,0.40375 -0.28263,1.21126 -0.0807,0.76714 -0.0807,1.09014 0,0.1615 0,0.48451 0,0.28262 0,0.68638 0,0.80751 0,0.84788 l 0,29.87788 z"
       style="font-style:normal;font-variant:normal;font-weight:800;font-stretch:normal;font-size:medium;line-height:125%;font-family:Oswald;-inkscape-font-specification:'Oswald Ultra-Bold';letter-spacing:0px;word-spacing:0px;fill:#e44082;fill-opacity:1;stroke:#dc0067;stroke-width:2;stroke-linecap:round;stroke-linejoin:round;stroke-miterlimit:4;stroke-dasharray:none;stroke-opacity:1"
       id="path7929"
       inkscape:connector-curvature="0" />
    <path
       d="m 468.16911,742.02283 0,-52.7304 -8.43848,4.52205 0,-11.34552 q 0.36338,-0.20187 2.34178,-1.37276 1.9784,-1.21127 3.59342,-2.18028 1.61502,-0.96901 3.35117,-2.09953 1.77652,-1.17089 2.42253,-1.73614 l 12.07227,0 0,66.94258 -15.34269,0 z"
       style="font-style:normal;font-variant:normal;font-weight:800;font-stretch:normal;font-size:medium;line-height:125%;font-family:Oswald;-inkscape-font-specification:'Oswald Ultra-Bold';letter-spacing:0px;word-spacing:0px;fill:#e44082;fill-opacity:1;stroke:#dc0067;stroke-width:2;stroke-linecap:round;stroke-linejoin:round;stroke-miterlimit:4;stroke-dasharray:none;stroke-opacity:1"
       id="path7931"
       inkscape:connector-curvature="0" />
    <path
       d="m 519.76901,743.3956 q -4.52206,0 -7.79247,-1.04976 -3.23004,-1.04976 -5.16807,-2.74554 -1.93802,-1.73614 -3.06853,-4.56243 -1.13052,-2.86666 -1.4939,-5.81407 -0.36338,-2.94741 -0.36338,-7.06571 l 14.65631,0 q 0,4.23942 0.36338,6.37933 0.40376,2.1399 1.29202,2.98778 0.80751,0.72676 2.26102,0.72676 0.20188,0 0.44414,0 2.38215,-0.1615 2.94741,-2.98779 0.56525,-2.86666 0.56525,-10.3765 0,-2.42253 -0.20187,-4.19905 -0.16151,-1.77652 -0.64601,-3.35117 -0.44413,-1.57464 -1.37277,-2.38215 -0.92864,-0.84789 -2.3014,-0.84789 -1.9784,0 -3.10892,1.49389 -1.13051,1.45352 -1.53427,4.80469 l -13.24316,0 1.53427,-39.32574 32.01777,0 0,12.27415 -19.98587,0 -0.84789,12.47603 q 0.64601,-0.92863 2.86666,-1.77652 2.22066,-0.84789 4.84506,-1.17089 1.17089,-0.1615 2.26103,-0.1615 5.97558,0 9.60937,4.84506 4.27981,5.73332 4.27981,17.11921 0,3.35117 -0.20188,5.97558 -0.1615,2.58403 -0.68638,5.24881 -0.48451,2.66479 -1.37277,4.60281 -0.84789,1.93802 -2.26103,3.71455 -1.41314,1.73614 -3.39154,2.82628 -1.93803,1.09014 -4.68356,1.69577 -2.74554,0.64601 -6.21783,0.64601 z"
       style="font-style:normal;font-variant:normal;font-weight:800;font-stretch:normal;font-size:medium;line-height:125%;font-family:Oswald;-inkscape-font-specification:'Oswald Ultra-Bold';letter-spacing:0px;word-spacing:0px;fill:#e44082;fill-opacity:1;stroke:#dc0067;stroke-width:2;stroke-linecap:round;stroke-linejoin:round;stroke-miterlimit:4;stroke-dasharray:none;stroke-opacity:1"
       id="path7933"
       inkscape:connector-curvature="0" />
    <path
       d="m 545.93234,742.02283 0,-13.56617 13.88917,0 0,13.56617 -13.88917,0 z"
       style="font-style:normal;font-variant:normal;font-weight:800;font-stretch:normal;font-size:medium;line-height:125%;font-family:Oswald;-inkscape-font-specification:'Oswald Ultra-Bold';letter-spacing:0px;word-spacing:0px;fill:#e44082;fill-opacity:1;stroke:#dc0067;stroke-width:2;stroke-linecap:round;stroke-linejoin:round;stroke-miterlimit:4;stroke-dasharray:none;stroke-opacity:1"
       id="path7935"
       inkscape:connector-curvature="0" />
    <path
       d="m 568.58299,742.02283 0,-10.78026 15.54457,-24.10417 q 0.36338,-0.56526 1.4939,-2.26103 1.17088,-1.73615 1.69577,-2.62441 0.56525,-0.88826 1.49389,-2.50328 0.92864,-1.65539 1.37277,-2.82628 0.4845,-1.17089 0.84788,-2.62441 0.40376,-1.45352 0.40376,-2.74554 0,-2.70516 -1.37277,-3.87604 -0.96901,-0.80752 -2.26103,-0.80752 -0.56525,0 -1.17089,0.16151 -1.85727,0.44413 -2.78591,2.3014 -0.92863,1.8169 -0.92863,6.01595 l 0,3.55305 -14.69669,0 0,-3.87605 q 0,-4.56244 1.09014,-8.27698 1.13052,-3.75492 3.39154,-6.66196 2.26103,-2.94741 6.05633,-4.56243 3.83567,-1.61502 8.88261,-1.61502 9.20562,0 14.0103,4.68356 4.84506,4.68356 4.84506,13.20279 0,1.37276 -0.1615,2.70516 -0.12113,1.33239 -0.56526,2.74553 -0.44413,1.41314 -0.72676,2.42253 -0.28263,0.96901 -1.13051,2.54366 -0.80751,1.53427 -1.13052,2.26102 -0.323,0.68639 -1.45351,2.38216 -1.13052,1.69577 -1.41315,2.1399 -0.24225,0.44413 -1.57464,2.34178 -1.33239,1.89765 -1.49389,2.1399 l -11.34552,16.75584 19.05724,0 0,11.78964 -35.97458,0 z"
       style="font-style:normal;font-variant:normal;font-weight:800;font-stretch:normal;font-size:medium;line-height:125%;font-family:Oswald;-inkscape-font-specification:'Oswald Ultra-Bold';letter-spacing:0px;word-spacing:0px;fill:#e44082;fill-opacity:1;stroke:#dc0067;stroke-width:2;stroke-linecap:round;stroke-linejoin:round;stroke-miterlimit:4;stroke-dasharray:none;stroke-opacity:1"
       id="path7937"
       inkscape:connector-curvature="0" />
    <path
       inkscape:connector-curvature="0"
       id="polygon5543"
       d="m 204.83655,675.62168 -46.80871,1.25295 -20.02569,20.02569 31.20581,-0.8353 -32.04111,32.0411 15.18526,15.18526 32.0411,-32.0411 -0.83529,31.2058 20.02569,-20.02569 z"
       style="fill:#ffc640;fill-opacity:1;stroke:#ffb400;stroke-width:2;stroke-linecap:round;stroke-linejoin:round;stroke-miterlimit:4;stroke-dasharray:none;stroke-opacity:1" />
    <path
       inkscape:connector-curvature="0"
       id="path7941"
       style="font-style:normal;font-variant:normal;font-weight:800;font-stretch:normal;font-size:medium;line-height:125%;font-family:Oswald;-inkscape-font-specification:'Oswald Ultra-Bold';letter-spacing:0px;word-spacing:0px;fill:#40b6e7;fill-opacity:1;stroke:#009ee0;stroke-width:2;stroke-linecap:round;stroke-linejoin:round;stroke-miterlimit:4;stroke-dasharray:none;stroke-opacity:1"
       d="m 146.3203,821.88776 0,-55.01042 -8.80335,4.71759 0,-11.83609 q 0.3791,-0.21061 2.44304,-1.43212 2.06394,-1.26364 3.74879,-2.27455 1.68486,-1.01091 3.49607,-2.19031 1.85334,-1.22152 2.52728,-1.81122 l 12.59427,0 0,69.83712 -16.0061,0 z" />
    <path
       inkscape:connector-curvature="0"
       id="path7943"
       style="font-style:normal;font-variant:normal;font-weight:800;font-stretch:normal;font-size:medium;line-height:125%;font-family:Oswald;-inkscape-font-specification:'Oswald Ultra-Bold';letter-spacing:0px;word-spacing:0px;fill:#40b6e7;fill-opacity:1;stroke:#009ee0;stroke-width:2;stroke-linecap:round;stroke-linejoin:round;stroke-miterlimit:4;stroke-dasharray:none;stroke-opacity:1"
       d="m 182.16335,821.88776 0,-55.01042 -8.80336,4.71759 0,-11.83609 q 0.3791,-0.21061 2.44304,-1.43212 2.06394,-1.26364 3.74879,-2.27455 1.68486,-1.01091 3.49607,-2.19031 1.85334,-1.22152 2.52728,-1.81122 l 12.59427,0 0,69.83712 -16.00609,0 z" />
    <path
       inkscape:connector-curvature="0"
       id="path7945"
       style="font-style:normal;font-variant:normal;font-weight:800;font-stretch:normal;font-size:medium;line-height:125%;font-family:Oswald;-inkscape-font-specification:'Oswald Ultra-Bold';letter-spacing:0px;word-spacing:0px;fill:#40b6e7;fill-opacity:1;stroke:#009ee0;stroke-width:2;stroke-linecap:round;stroke-linejoin:round;stroke-miterlimit:4;stroke-dasharray:none;stroke-opacity:1"
       d="m 209.23554,821.88776 0,-14.15276 14.48973,0 0,14.15276 -14.48973,0 z" />
    <path
       inkscape:connector-curvature="0"
       id="path7947"
       style="font-style:normal;font-variant:normal;font-weight:800;font-stretch:normal;font-size:medium;line-height:125%;font-family:Oswald;-inkscape-font-specification:'Oswald Ultra-Bold';letter-spacing:0px;word-spacing:0px;fill:#40b6e7;fill-opacity:1;stroke:#009ee0;stroke-width:2;stroke-linecap:round;stroke-linejoin:round;stroke-miterlimit:4;stroke-dasharray:none;stroke-opacity:1"
       d="m 265.919,779.64009 2.27455,0 q 4.63334,0 6.23395,-2.10606 1.60061,-2.14819 1.60061,-6.48668 0,-3.32758 -1.9797,-5.51789 -1.9797,-2.23243 -5.30728,-2.23243 l -2.82213,0 0,16.34306 z m 0,30.32734 2.31667,0 q 4.63335,0 6.57093,-2.31667 1.93758,-2.31667 1.93758,-7.03426 0,-5.64425 -1.85334,-7.83456 -1.85334,-2.23243 -6.57092,-2.23243 l -2.40092,0 0,19.41792 z m -17.10125,11.92033 0,-69.83712 18.91247,0 q 2.78,0 5.01243,0.16849 2.23243,0.12636 4.75971,0.63182 2.52728,0.46333 4.42274,1.26364 1.89545,0.8003 3.70667,2.23243 1.81122,1.39 2.94849,3.28546 1.09515,1.93758 1.7691,4.71758 0.58969,2.44304 0.58969,5.43365 0,0.37909 0,0.8003 -0.25272,11.75185 -10.23547,13.81579 5.9391,0.54758 9.14032,4.84395 3.24334,4.25425 3.3697,11.6676 0,0.29485 0,0.63182 0,10.4882 -5.56001,15.33215 -5.72849,5.01244 -16.46943,5.01244 l -22.36641,0 z" />
    <path
       inkscape:connector-curvature="0"
       id="path7949"
       style="font-style:normal;font-variant:normal;font-weight:800;font-stretch:normal;font-size:medium;line-height:125%;font-family:Oswald;-inkscape-font-specification:'Oswald Ultra-Bold';letter-spacing:0px;word-spacing:0px;fill:#40b6e7;fill-opacity:1;stroke:#009ee0;stroke-width:2;stroke-linecap:round;stroke-linejoin:round;stroke-miterlimit:4;stroke-dasharray:none;stroke-opacity:1"
       d="m 301.25877,821.88776 0,-69.83712 17.05913,0 0,69.83712 -17.05913,0 z" />
    <path
       inkscape:connector-curvature="0"
       id="path7951"
       style="font-style:normal;font-variant:normal;font-weight:800;font-stretch:normal;font-size:medium;line-height:125%;font-family:Oswald;-inkscape-font-specification:'Oswald Ultra-Bold';letter-spacing:0px;word-spacing:0px;fill:#40b6e7;fill-opacity:1;stroke:#009ee0;stroke-width:2;stroke-linecap:round;stroke-linejoin:round;stroke-miterlimit:4;stroke-dasharray:none;stroke-opacity:1"
       d="m 347.67644,822.98291 q -10.36184,0 -15.29003,-5.22304 -4.88607,-5.22304 -5.18092,-17.43822 l 14.48973,-1.89546 q 0,3.45395 0.37909,5.81274 0.37909,2.35879 1.09515,3.62243 0.71607,1.22152 1.51637,1.72698 0.84243,0.50545 1.93758,0.50545 2.86425,0 2.86425,-4.12788 0,-4.04365 -1.85334,-6.95002 -1.81121,-2.90637 -5.85486,-6.36031 l -4.42274,-3.7488 q -2.40091,-2.06394 -3.9594,-3.66455 -1.51636,-1.60061 -3.11697,-3.91728 -1.55849,-2.3588 -2.31668,-5.18092 -0.75818,-2.82213 -0.75818,-6.27608 0,-9.05608 5.43365,-13.94215 5.47577,-4.92819 15.07942,-4.97031 17.18549,0 17.31186,20.38671 l -14.8267,1.47424 q 0,-2.73788 -0.0842,-4.08576 -0.0421,-1.39001 -0.33697,-2.82213 -0.29485,-1.47424 -0.96879,-2.02182 -0.63182,-0.5897 -1.72698,-0.5897 -1.55848,0.0421 -2.35879,1.64273 -0.8003,1.60061 -0.8003,3.24334 0,0.88455 0.12636,1.72697 0.16849,0.84243 0.29485,1.51637 0.12636,0.63182 0.54758,1.43212 0.42121,0.75819 0.63182,1.22152 0.2106,0.46334 0.84242,1.22152 0.63182,0.75818 0.84243,1.05303 0.2106,0.29485 1.01091,1.05304 0.8003,0.75818 0.96879,0.92666 0.16848,0.12637 1.09515,0.96879 0.92667,0.80031 1.01091,0.88455 l 4.04365,3.58031 q 2.5694,2.31667 4.33849,4.33849 1.81122,2.02183 3.45395,4.67547 1.64273,2.61152 2.44303,5.7285 0.84243,3.07485 0.84243,6.65516 0,7.53971 -5.18092,12.67851 -5.1388,5.1388 -13.56306,5.1388 z" />
    <path
       inkscape:connector-curvature="0"
       id="path7953"
       style="font-style:normal;font-variant:normal;font-weight:800;font-stretch:normal;font-size:medium;line-height:125%;font-family:Oswald;-inkscape-font-specification:'Oswald Ultra-Bold';letter-spacing:0px;word-spacing:0px;fill:#40b6e7;fill-opacity:1;stroke:#009ee0;stroke-width:2;stroke-linecap:round;stroke-linejoin:round;stroke-miterlimit:4;stroke-dasharray:none;stroke-opacity:1"
       d="m 400.69855,821.88776 0,-55.01042 -8.80335,4.71759 0,-11.83609 q 0.3791,-0.21061 2.44304,-1.43212 2.06394,-1.26364 3.74879,-2.27455 1.68486,-1.01091 3.49607,-2.19031 1.85334,-1.22152 2.52728,-1.81122 l 12.59427,0 0,69.83712 -16.0061,0 z" />
    <path
       inkscape:connector-curvature="0"
       id="path7955"
       style="font-style:normal;font-variant:normal;font-weight:800;font-stretch:normal;font-size:medium;line-height:125%;font-family:Oswald;-inkscape-font-specification:'Oswald Ultra-Bold';letter-spacing:0px;word-spacing:0px;fill:#40b6e7;fill-opacity:1;stroke:#009ee0;stroke-width:2;stroke-linecap:round;stroke-linejoin:round;stroke-miterlimit:4;stroke-dasharray:none;stroke-opacity:1"
       d="m 448.47693,823.31988 q -4.59122,0 -8.08729,-1.13727 -3.45394,-1.09516 -5.68637,-3.03274 -2.23243,-1.93758 -3.62243,-4.88607 -1.34789,-2.99061 -1.93758,-6.36031 -0.54758,-3.36971 -0.54758,-7.66608 l 0,-2.48516 15.92185,0 0,2.73789 q 0,5.39152 0.88455,7.41335 0.92667,1.9797 3.32758,1.9797 2.23243,0 2.99061,-1.81122 0.75819,-1.85334 0.75819,-6.44456 0,-5.47577 -1.39001,-7.75032 -1.34788,-2.27455 -5.47577,-2.31667 l -2.94849,0 0,-10.10911 2.65365,0 q 4.25425,0 5.68637,-2.31667 1.47425,-2.35879 1.47425,-7.87668 0,-4.00153 -0.96879,-5.85487 -0.92667,-1.89545 -3.24334,-1.89545 -2.19031,0 -2.99062,1.9797 -0.75818,1.93758 -0.75818,5.81274 l 0,4.29637 -15.92185,0 0,-4.75971 q 0,-9.64577 5.22304,-14.82669 5.22304,-5.18092 14.40548,-5.18092 9.39305,0 14.65822,4.88607 5.26516,4.88607 5.26516,14.32124 0,5.9391 -2.35879,10.23547 -2.3588,4.25425 -5.77062,5.1388 1.76909,0.71606 3.1591,1.81122 1.39,1.09515 2.52727,2.90637 1.1794,1.76909 1.81122,4.5491 0.63182,2.78 0.63182,6.44456 0,4.97031 -1.09515,8.92971 -1.05304,3.9594 -3.32759,6.99214 -2.27455,3.03273 -6.14971,4.67546 -3.83304,1.60061 -9.0982,1.60061 z" />
    <path
       inkscape:connector-curvature="0"
       id="path7957"
       style="font-style:normal;font-variant:normal;font-weight:800;font-stretch:normal;font-size:medium;line-height:125%;font-family:Oswald;-inkscape-font-specification:'Oswald Ultra-Bold';letter-spacing:0px;word-spacing:0px;fill:#40b6e7;fill-opacity:1;stroke:#009ee0;stroke-width:2;stroke-linecap:round;stroke-linejoin:round;stroke-miterlimit:4;stroke-dasharray:none;stroke-opacity:1"
       d="m 475.2661,821.88776 0,-14.15276 14.48972,0 0,14.15276 -14.48972,0 z" />
    <path
       inkscape:connector-curvature="0"
       id="path7959"
       style="font-style:normal;font-variant:normal;font-weight:800;font-stretch:normal;font-size:medium;line-height:125%;font-family:Oswald;-inkscape-font-specification:'Oswald Ultra-Bold';letter-spacing:0px;word-spacing:0px;fill:#40b6e7;fill-opacity:1;stroke:#009ee0;stroke-width:2;stroke-linecap:round;stroke-linejoin:round;stroke-miterlimit:4;stroke-dasharray:none;stroke-opacity:1"
       d="m 517.47162,823.31988 q -9.43518,0 -14.53185,-5.3494 -5.05456,-5.34941 -5.05456,-14.44761 l 0,-32.22279 q 0,-9.4773 4.88607,-14.95306 4.92819,-5.47577 14.70034,-5.47577 9.68789,0 14.57396,5.51789 4.9282,5.47577 4.9282,14.91094 l 0,32.22279 q 0,8.92972 -5.1388,14.36336 -5.1388,5.43365 -14.36336,5.43365 z m -3.24334,-20.30247 q 0,5.93911 3.24334,5.93911 3.24334,0 3.24334,-5.93911 l 0,-31.16976 q 0,-0.0421 0,-0.63182 0,-0.63182 0,-0.88454 0,-0.29485 -0.0421,-0.92667 -0.0421,-0.63182 -0.12636,-0.96879 -0.0842,-0.37909 -0.25273,-0.92667 -0.12636,-0.5897 -0.37909,-0.88455 -0.25273,-0.33697 -0.5897,-0.67394 -0.29485,-0.33697 -0.8003,-0.46333 -0.46334,-0.16849 -1.05303,-0.16849 -0.75819,0 -1.34789,0.25273 -0.58969,0.21061 -0.92666,0.75818 -0.33698,0.54758 -0.5897,1.01091 -0.21061,0.42122 -0.29485,1.26364 -0.0842,0.80031 -0.0842,1.13728 0,0.16848 0,0.50545 0,0.29485 0,0.71607 0,0.84242 0,0.88454 l 0,31.16976 z" />
    <path
       inkscape:connector-curvature="0"
       id="path7961"
       style="font-style:normal;font-variant:normal;font-weight:800;font-stretch:normal;font-size:medium;line-height:125%;font-family:Oswald;-inkscape-font-specification:'Oswald Ultra-Bold';letter-spacing:0px;word-spacing:0px;fill:#40b6e7;fill-opacity:1;stroke:#009ee0;stroke-width:2;stroke-linecap:round;stroke-linejoin:round;stroke-miterlimit:4;stroke-dasharray:none;stroke-opacity:1"
       d="m 564.64749,784.10495 q 1.13728,0 1.9797,-0.67394 0.88455,-0.71606 1.34788,-1.60061 l 0,-11.62548 q 0,-1.81121 -0.12636,-2.94849 -0.0842,-1.17939 -0.42121,-2.40091 -0.29485,-1.22152 -1.05304,-1.81122 -0.75818,-0.5897 -1.93758,-0.5897 -0.8003,0 -1.34788,0.25273 -0.54757,0.25273 -0.92667,1.01091 -0.37909,0.71607 -0.58969,1.43213 -0.16849,0.71606 -0.29485,2.31667 -0.0842,1.55849 -0.12637,2.82213 0,1.26363 0,3.70667 0,2.99061 0.0421,4.33849 0.0842,1.34789 0.3791,2.99062 0.33697,1.60061 1.05303,2.1903 0.75818,0.5897 2.02182,0.5897 z m -0.29485,38.92008 q -5.22304,0 -8.76123,-1.13727 -3.49607,-1.1794 -5.51789,-3.58031 -1.9797,-2.40092 -2.82213,-5.64426 -0.84242,-3.24334 -0.84242,-7.87668 l 0,-1.26364 14.8267,0 q 0,1.64273 0,2.44304 0.0421,0.8003 0.12636,1.89545 0.0842,1.05304 0.29485,1.51637 0.2106,0.46333 0.54758,0.96879 0.37909,0.50546 0.92666,0.67394 0.5897,0.16849 1.39001,0.16849 2.44303,0 2.94849,-2.10607 0.50545,-2.10606 0.50545,-10.10911 0,-0.88455 0,-1.39 l 0,-4.92819 q -0.96879,1.68485 -3.11697,2.61152 -2.10607,0.88454 -4.84395,0.96879 -0.29485,0 -0.54758,0 -3.70667,-0.0421 -6.48668,-1.55849 -3.03273,-1.68485 -4.75971,-4.67547 -1.68485,-3.03273 -2.52727,-6.7394 -0.84243,-3.7488 -0.84243,-8.12942 0,-5.85486 1.05303,-10.19335 1.05304,-4.38061 3.32759,-7.53971 2.27455,-3.20122 6.06546,-4.80183 3.79092,-1.64273 9.14032,-1.64273 19.88126,0 19.88126,21.98732 l 0,26.74702 q 0,4.3385 -0.54758,7.7082 -0.50546,3.3697 -1.85334,6.40244 -1.34788,3.03273 -3.58031,5.01243 -2.1903,1.93758 -5.72849,3.07486 -3.53819,1.13727 -8.25578,1.13727 z" />
    <path
       inkscape:connector-curvature="0"
       id="path7963"
       style="font-style:normal;font-variant:normal;font-weight:800;font-stretch:normal;font-size:medium;line-height:125%;font-family:Oswald;-inkscape-font-specification:'Oswald Ultra-Bold';letter-spacing:0px;word-spacing:0px;fill:#40b6e7;fill-opacity:1;stroke:#009ee0;stroke-width:2;stroke-linecap:round;stroke-linejoin:round;stroke-miterlimit:4;stroke-dasharray:none;stroke-opacity:1"
       d="m 592.3633,821.88776 0,-14.15276 14.48972,0 0,14.15276 -14.48972,0 z" />
    <path
       inkscape:connector-curvature="0"
       id="path7966"
       style="font-style:normal;font-variant:normal;font-weight:800;font-stretch:normal;font-size:medium;line-height:125%;font-family:Oswald;-inkscape-font-specification:'Oswald Ultra-Bold';letter-spacing:0px;word-spacing:0px;fill:#ffc640;fill-opacity:1;stroke:#ffb400;stroke-width:2;stroke-linecap:round;stroke-linejoin:round;stroke-miterlimit:4;stroke-dasharray:none;stroke-opacity:1"
       d="m 153.93986,870.45465 5.28641,0 -2.66094,-21.96166 -2.62547,21.96166 z m -16.49785,20.04578 10.67926,-58.8246 16.7462,0 10.57282,58.8246 -13.1628,0 -1.84492,-11.74363 -7.62804,0 -1.77396,11.74363 -13.58856,0 z" />
    <path
       inkscape:connector-curvature="0"
       id="path7968"
       style="font-style:normal;font-variant:normal;font-weight:800;font-stretch:normal;font-size:medium;line-height:125%;font-family:Oswald;-inkscape-font-specification:'Oswald Ultra-Bold';letter-spacing:0px;word-spacing:0px;fill:#ffc640;fill-opacity:1;stroke:#ffb400;stroke-width:2;stroke-linecap:round;stroke-linejoin:round;stroke-miterlimit:4;stroke-dasharray:none;stroke-opacity:1"
       d="m 185.5164,890.50043 0,-48.18083 -8.58598,0 0,-10.64377 31.54105,0 0,10.64377 -8.55049,0 0,48.18083 -14.40458,0 z" />
    <path
       inkscape:connector-curvature="0"
       id="path7970"
       style="font-style:normal;font-variant:normal;font-weight:800;font-stretch:normal;font-size:medium;line-height:125%;font-family:Oswald;-inkscape-font-specification:'Oswald Ultra-Bold';letter-spacing:0px;word-spacing:0px;fill:#ffc640;fill-opacity:1;stroke:#ffb400;stroke-width:2;stroke-linecap:round;stroke-linejoin:round;stroke-miterlimit:4;stroke-dasharray:none;stroke-opacity:1"
       d="m 221.57919,890.50043 0,-48.18083 -8.58598,0 0,-10.64377 31.54105,0 0,10.64377 -8.55049,0 0,48.18083 -14.40458,0 z" />
    <path
       inkscape:connector-curvature="0"
       id="path7972"
       style="font-style:normal;font-variant:normal;font-weight:800;font-stretch:normal;font-size:medium;line-height:125%;font-family:Oswald;-inkscape-font-specification:'Oswald Ultra-Bold';letter-spacing:0px;word-spacing:0px;fill:#ffc640;fill-opacity:1;stroke:#ffb400;stroke-width:2;stroke-linecap:round;stroke-linejoin:round;stroke-miterlimit:4;stroke-dasharray:none;stroke-opacity:1"
       d="m 264.18977,856.58226 3.7608,0 q 3.54793,0 4.89614,-2.02231 1.38369,-2.0578 1.38369,-5.8186 0,-3.61889 -1.31273,-5.57024 -1.27725,-1.98684 -4.25751,-1.98684 l -4.47039,0 0,15.39799 z m -14.40457,33.91817 0,-58.8246 17.56223,0 q 3.7608,0 6.63462,0.39027 2.9093,0.39027 5.53476,1.41917 2.66094,1.0289 4.32847,2.76738 1.703,1.70301 2.69642,4.47039 0.99342,2.7319 0.99342,6.45722 0,5.92504 -1.49013,9.43748 -1.49013,3.51245 -5.71216,5.71216 l 8.01831,28.17053 -15.07868,0 -6.10243,-26.00629 -2.98026,0 0,26.00629 -14.40457,0 z" />
    <path
       inkscape:connector-curvature="0"
       id="path7974"
       style="font-style:normal;font-variant:normal;font-weight:800;font-stretch:normal;font-size:medium;line-height:125%;font-family:Oswald;-inkscape-font-specification:'Oswald Ultra-Bold';letter-spacing:0px;word-spacing:0px;fill:#ffc640;fill-opacity:1;stroke:#ffb400;stroke-width:2;stroke-linecap:round;stroke-linejoin:round;stroke-miterlimit:4;stroke-dasharray:none;stroke-opacity:1"
       d="m 308.92911,870.45465 5.28641,0 -2.66095,-21.96166 -2.62546,21.96166 z m -16.49785,20.04578 10.67925,-58.8246 16.74621,0 10.57281,58.8246 -13.1628,0 -1.84492,-11.74363 -7.62804,0 -1.77396,11.74363 -13.58855,0 z" />
    <path
       inkscape:connector-curvature="0"
       id="path7976"
       style="font-style:normal;font-variant:normal;font-weight:800;font-stretch:normal;font-size:medium;line-height:125%;font-family:Oswald;-inkscape-font-specification:'Oswald Ultra-Bold';letter-spacing:0px;word-spacing:0px;fill:#ffc640;fill-opacity:1;stroke:#ffb400;stroke-width:2;stroke-linecap:round;stroke-linejoin:round;stroke-miterlimit:4;stroke-dasharray:none;stroke-opacity:1"
       d="m 336.35457,890.50043 0,-58.8246 14.40458,0 0,22.91959 8.90529,-22.91959 14.15622,0 -10.67925,26.71587 10.82117,32.10873 -14.79485,0 -7.66352,-25.47411 -0.74506,0.92247 0,24.55164 -14.40458,0 z" />
    <path
       inkscape:connector-curvature="0"
       id="path7978"
       style="font-style:normal;font-variant:normal;font-weight:800;font-stretch:normal;font-size:medium;line-height:125%;font-family:Oswald;-inkscape-font-specification:'Oswald Ultra-Bold';letter-spacing:0px;word-spacing:0px;fill:#ffc640;fill-opacity:1;stroke:#ffb400;stroke-width:2;stroke-linecap:round;stroke-linejoin:round;stroke-miterlimit:4;stroke-dasharray:none;stroke-opacity:1"
       d="m 385.64319,890.50043 0,-48.18083 -8.58598,0 0,-10.64377 31.54106,0 0,10.64377 -8.5505,0 0,48.18083 -14.40458,0 z" />
    <path
       inkscape:connector-curvature="0"
       id="path7980"
       style="font-style:normal;font-variant:normal;font-weight:800;font-stretch:normal;font-size:medium;line-height:125%;font-family:Oswald;-inkscape-font-specification:'Oswald Ultra-Bold';letter-spacing:0px;word-spacing:0px;fill:#ffc640;fill-opacity:1;stroke:#ffb400;stroke-width:2;stroke-linecap:round;stroke-linejoin:round;stroke-miterlimit:4;stroke-dasharray:none;stroke-opacity:1"
       d="m 439.89096,890.14563 q -3.54793,1.27726 -8.58598,1.27726 -5.03806,0 -8.58598,-1.27726 -3.54793,-1.31273 -5.6412,-3.86723 -2.09328,-2.58999 -3.01574,-6.06696 -0.92246,-3.51244 -0.92246,-8.26666 l 0,-21.7133 q 0,-4.75422 0.92246,-8.23119 0.92246,-3.51245 3.01574,-6.06695 2.09327,-2.58999 5.6412,-3.86724 3.54792,-1.31273 8.58598,-1.31273 5.03805,0 8.58598,1.31273 3.5834,1.27725 5.67668,3.86724 2.12875,2.5545 3.05121,6.06695 0.95794,3.47697 0.95794,8.23119 l 0,21.7133 q 0,4.75422 -0.95794,8.26666 -0.92246,3.47697 -3.05121,6.06696 -2.09328,2.5545 -5.67668,3.86723 z m -8.58598,-8.69241 q 1.17081,0 1.91588,-0.49671 0.74506,-0.53219 1.06437,-1.52561 0.31932,-0.99342 0.39028,-1.80944 0.10643,-0.81602 0.10643,-2.02232 l 0,-29.05751 q 0,-1.20629 -0.10643,-2.02231 -0.071,-0.81603 -0.39028,-1.77396 -0.31931,-0.99342 -1.06437,-1.49013 -0.74507,-0.53219 -1.91588,-0.53219 -0.95794,0 -1.63205,0.39027 -0.6741,0.39027 -1.0289,0.92246 -0.31931,0.49671 -0.49671,1.41917 -0.17739,0.88698 -0.21287,1.49013 0,0.56767 0,1.59656 l 0,29.05751 q 0,0.99342 0,1.59657 0.0355,0.60315 0.21287,1.52561 0.1774,0.88698 0.49671,1.41917 0.3548,0.49671 1.0289,0.92246 0.67411,0.39027 1.63205,0.39027 z" />
    <path
       inkscape:connector-curvature="0"
       id="path7982"
       style="font-style:normal;font-variant:normal;font-weight:800;font-stretch:normal;font-size:medium;line-height:125%;font-family:Oswald;-inkscape-font-specification:'Oswald Ultra-Bold';letter-spacing:0px;word-spacing:0px;fill:#ffc640;fill-opacity:1;stroke:#ffb400;stroke-width:2;stroke-linecap:round;stroke-linejoin:round;stroke-miterlimit:4;stroke-dasharray:none;stroke-opacity:1"
       d="m 471.82227,856.58226 3.7608,0 q 3.54793,0 4.89614,-2.02231 1.38369,-2.0578 1.38369,-5.8186 0,-3.61889 -1.31273,-5.57024 -1.27725,-1.98684 -4.25751,-1.98684 l -4.47039,0 0,15.39799 z m -14.40457,33.91817 0,-58.8246 17.56223,0 q 3.7608,0 6.63462,0.39027 2.90929,0.39027 5.53476,1.41917 2.66094,1.0289 4.32847,2.76738 1.703,1.70301 2.69642,4.47039 0.99342,2.7319 0.99342,6.45722 0,5.92504 -1.49013,9.43748 -1.49013,3.51245 -5.71216,5.71216 l 8.01831,28.17053 -15.07868,0 -6.10243,-26.00629 -2.98026,0 0,26.00629 -14.40457,0 z" />
    <path
       inkscape:connector-curvature="0"
       id="path7984"
       style="font-style:normal;font-variant:normal;font-weight:800;font-stretch:normal;font-size:medium;line-height:125%;font-family:Oswald;-inkscape-font-specification:'Oswald Ultra-Bold';letter-spacing:0px;word-spacing:0px;fill:#ffc640;fill-opacity:1;stroke:#ffb400;stroke-width:2;stroke-linecap:round;stroke-linejoin:round;stroke-miterlimit:4;stroke-dasharray:none;stroke-opacity:1"
       d="m 515.85047,890.50043 0,-58.8246 27.5319,0 0,9.65035 -13.12733,0 0,13.12733 9.79228,0 0,10.00515 -9.79228,0 0,16.42689 13.26924,0 0,9.61488 -27.67381,0 z" />
    <path
       inkscape:connector-curvature="0"
       id="path7986"
       style="font-style:normal;font-variant:normal;font-weight:800;font-stretch:normal;font-size:medium;line-height:125%;font-family:Oswald;-inkscape-font-specification:'Oswald Ultra-Bold';letter-spacing:0px;word-spacing:0px;fill:#ffc640;fill-opacity:1;stroke:#ffb400;stroke-width:2;stroke-linecap:round;stroke-linejoin:round;stroke-miterlimit:4;stroke-dasharray:none;stroke-opacity:1"
       d="m 548.24302,890.50043 0,-11.92103 12.20486,0 0,11.92103 -12.20486,0 z" />
    <path
       inkscape:connector-curvature="0"
       id="path7988"
       style="font-style:normal;font-variant:normal;font-weight:800;font-stretch:normal;font-size:medium;line-height:125%;font-family:Oswald;-inkscape-font-specification:'Oswald Ultra-Bold';letter-spacing:0px;word-spacing:0px;fill:#ffc640;fill-opacity:1;stroke:#ffb400;stroke-width:2;stroke-linecap:round;stroke-linejoin:round;stroke-miterlimit:4;stroke-dasharray:none;stroke-opacity:1"
       d="m 571.88654,890.50043 -9.89871,-58.8246 12.09843,0 5.4638,38.92074 5.00258,-38.92074 13.02088,0 -10.07611,58.8246 -15.61087,0 z" />
    <path
       inkscape:connector-curvature="0"
       id="path7990"
       style="font-style:normal;font-variant:normal;font-weight:800;font-stretch:normal;font-size:medium;line-height:125%;font-family:Oswald;-inkscape-font-specification:'Oswald Ultra-Bold';letter-spacing:0px;word-spacing:0px;fill:#ffc640;fill-opacity:1;stroke:#ffb400;stroke-width:2;stroke-linecap:round;stroke-linejoin:round;stroke-miterlimit:4;stroke-dasharray:none;stroke-opacity:1"
       d="m 594.72303,890.50043 0,-11.92103 12.20486,0 0,11.92103 -12.20486,0 z" />
    <path
       inkscape:connector-curvature="0"
       id="path7993"
       style="font-style:normal;font-variant:normal;font-weight:800;font-stretch:normal;font-size:medium;line-height:125%;font-family:Oswald;-inkscape-font-specification:'Oswald Ultra-Bold';letter-spacing:0px;word-spacing:0px;fill:#e44082;fill-opacity:1;stroke:#dc0067;stroke-width:2;stroke-linecap:round;stroke-linejoin:round;stroke-miterlimit:4;stroke-dasharray:none;stroke-opacity:1"
       d="m 60.478698,990.85455 0.784692,-48.18585 12.845685,0 4.388458,24.79043 4.882523,-24.79043 12.322557,0 0.784692,48.18585 -8.195664,0 -0.930004,-31.24233 -4.911586,31.24233 -7.527222,0 -5.318463,-31.53296 -0.784691,31.53296 -8.340977,0 z" />
    <path
       inkscape:connector-curvature="0"
       id="path7995"
       style="font-style:normal;font-variant:normal;font-weight:800;font-stretch:normal;font-size:medium;line-height:125%;font-family:Oswald;-inkscape-font-specification:'Oswald Ultra-Bold';letter-spacing:0px;word-spacing:0px;fill:#e44082;fill-opacity:1;stroke:#dc0067;stroke-width:2;stroke-linecap:round;stroke-linejoin:round;stroke-miterlimit:4;stroke-dasharray:none;stroke-opacity:1"
       d="m 102.63442,990.85455 0,-48.18585 22.5526,0 0,7.90504 -10.75317,0 0,10.75317 8.02128,0 0,8.19567 -8.02128,0 0,13.456 10.86942,0 0,7.87597 -22.66885,0 z" />
    <path
       inkscape:connector-curvature="0"
       id="path7997"
       style="font-style:normal;font-variant:normal;font-weight:800;font-stretch:normal;font-size:medium;line-height:125%;font-family:Oswald;-inkscape-font-specification:'Oswald Ultra-Bold';letter-spacing:0px;word-spacing:0px;fill:#e44082;fill-opacity:1;stroke:#dc0067;stroke-width:2;stroke-linecap:round;stroke-linejoin:round;stroke-miterlimit:4;stroke-dasharray:none;stroke-opacity:1"
       d="m 130.24392,990.85455 0,-48.18585 11.77036,0 0,19.06509 6.01597,0 0,-19.06509 11.79943,0 0,48.18585 -11.79943,0 0,-20.66353 -6.01597,0 0,20.66353 -11.77036,0 z" />
    <path
       inkscape:connector-curvature="0"
       id="path7999"
       style="font-style:normal;font-variant:normal;font-weight:800;font-stretch:normal;font-size:medium;line-height:125%;font-family:Oswald;-inkscape-font-specification:'Oswald Ultra-Bold';letter-spacing:0px;word-spacing:0px;fill:#e44082;fill-opacity:1;stroke:#dc0067;stroke-width:2;stroke-linecap:round;stroke-linejoin:round;stroke-miterlimit:4;stroke-dasharray:none;stroke-opacity:1"
       d="m 178.27029,963.07067 3.08064,0 q 2.90626,0 4.01064,-1.65657 1.13345,-1.68563 1.13345,-4.76627 0,-2.96439 -1.07532,-4.56283 -1.04625,-1.62751 -3.48752,-1.62751 l -3.66189,0 0,12.61318 z m -11.79943,27.78388 0,-48.18585 14.38601,0 q 3.08064,0 5.43471,0.31969 2.38314,0.31969 4.53377,1.16251 2.1797,0.84281 3.54564,2.26688 1.39501,1.39501 2.20876,3.66189 0.81376,2.23783 0.81376,5.2894 0,4.85346 -1.22063,7.73067 -1.22064,2.8772 -4.67909,4.67908 l 6.56816,23.07573 -12.35162,0 -4.99878,-21.30291 -2.44126,0 0,21.30291 -11.79943,0 z" />
    <path
       inkscape:connector-curvature="0"
       id="path8001"
       style="font-style:normal;font-variant:normal;font-weight:800;font-stretch:normal;font-size:medium;line-height:125%;font-family:Oswald;-inkscape-font-specification:'Oswald Ultra-Bold';letter-spacing:0px;word-spacing:0px;fill:#e44082;fill-opacity:1;stroke:#dc0067;stroke-width:2;stroke-linecap:round;stroke-linejoin:round;stroke-miterlimit:4;stroke-dasharray:none;stroke-opacity:1"
       d="m 228.17375,991.61018 q -4.18502,0 -7.03315,-0.93 -2.84814,-0.95907 -4.53378,-2.93533 -1.68563,-2.00532 -2.41219,-4.76627 -0.69751,-2.76095 -0.69751,-6.68441 l 0,-33.62547 11.74131,0 0,35.60173 q 0,0.98813 0.0872,1.68563 0.0872,0.69751 0.34876,1.54032 0.26156,0.81376 0.90094,1.27876 0.63938,0.43594 1.59844,0.43594 0.95907,0 1.59845,-0.43594 0.63938,-0.465 0.90094,-1.27876 0.26156,-0.84281 0.31969,-1.54032 0.0872,-0.6975 0.0872,-1.68563 l 0,-35.60173 11.77036,0 0,33.62547 q 0,3.92346 -0.72656,6.68441 -0.72657,2.76095 -2.4122,4.76627 -1.65657,1.97626 -4.53377,2.93533 -2.84814,0.93 -7.0041,0.93 z" />
    <path
       inkscape:connector-curvature="0"
       id="path8003"
       style="font-style:normal;font-variant:normal;font-weight:800;font-stretch:normal;font-size:medium;line-height:125%;font-family:Oswald;-inkscape-font-specification:'Oswald Ultra-Bold';letter-spacing:0px;word-spacing:0px;fill:#e44082;fill-opacity:1;stroke:#dc0067;stroke-width:2;stroke-linecap:round;stroke-linejoin:round;stroke-miterlimit:4;stroke-dasharray:none;stroke-opacity:1"
       d="m 249.59292,990.85455 0,-48.18585 8.37004,0 8.80598,20.63447 0,-20.63447 9.73599,0 0,48.18585 -8.05036,0 -8.74785,-22.66885 0,22.66885 -10.1138,0 z" />
    <path
       inkscape:connector-curvature="0"
       id="path8005"
       style="font-style:normal;font-variant:normal;font-weight:800;font-stretch:normal;font-size:medium;line-height:125%;font-family:Oswald;-inkscape-font-specification:'Oswald Ultra-Bold';letter-spacing:0px;word-spacing:0px;fill:#e44082;fill-opacity:1;stroke:#dc0067;stroke-width:2;stroke-linecap:round;stroke-linejoin:round;stroke-miterlimit:4;stroke-dasharray:none;stroke-opacity:1"
       d="m 288.55102,990.85455 0,-39.46706 -7.03316,0 0,-8.71879 25.83668,0 0,8.71879 -7.00409,0 0,39.46706 -11.79943,0 z" />
    <path
       inkscape:connector-curvature="0"
       id="path8007"
       style="font-style:normal;font-variant:normal;font-weight:800;font-stretch:normal;font-size:medium;line-height:125%;font-family:Oswald;-inkscape-font-specification:'Oswald Ultra-Bold';letter-spacing:0px;word-spacing:0px;fill:#e44082;fill-opacity:1;stroke:#dc0067;stroke-width:2;stroke-linecap:round;stroke-linejoin:round;stroke-miterlimit:4;stroke-dasharray:none;stroke-opacity:1"
       d="m 312.33842,990.85455 0,-48.18585 22.55261,0 0,7.90504 -10.75318,0 0,10.75317 8.02129,0 0,8.19567 -8.02129,0 0,13.456 10.86943,0 0,7.87597 -22.66886,0 z" />
    <path
       inkscape:connector-curvature="0"
       id="path8009"
       style="font-style:normal;font-variant:normal;font-weight:800;font-stretch:normal;font-size:medium;line-height:125%;font-family:Oswald;-inkscape-font-specification:'Oswald Ultra-Bold';letter-spacing:0px;word-spacing:0px;fill:#e44082;fill-opacity:1;stroke:#dc0067;stroke-width:2;stroke-linecap:round;stroke-linejoin:round;stroke-miterlimit:4;stroke-dasharray:none;stroke-opacity:1"
       d="m 352.13933,963.07067 3.08064,0 q 2.90627,0 4.01065,-1.65657 1.13344,-1.68563 1.13344,-4.76627 0,-2.96439 -1.07532,-4.56283 -1.04625,-1.62751 -3.48751,-1.62751 l -3.6619,0 0,12.61318 z m -11.79943,27.78388 0,-48.18585 14.38601,0 q 3.08064,0 5.43471,0.31969 2.38314,0.31969 4.53377,1.16251 2.1797,0.84281 3.54564,2.26688 1.39501,1.39501 2.20876,3.66189 0.81376,2.23783 0.81376,5.2894 0,4.85346 -1.22063,7.73067 -1.22063,2.8772 -4.67909,4.67908 l 6.56816,23.07573 -12.35162,0 -4.99878,-21.30291 -2.44126,0 0,21.30291 -11.79943,0 z" />
    <path
       inkscape:connector-curvature="0"
       id="path8012"
       style="font-style:normal;font-variant:normal;font-weight:800;font-stretch:normal;font-size:medium;line-height:125%;font-family:Oswald;-inkscape-font-specification:'Oswald Ultra-Bold';letter-spacing:0px;word-spacing:0px;fill:#e44082;fill-opacity:1;stroke:#dc0067;stroke-width:2;stroke-linecap:round;stroke-linejoin:round;stroke-miterlimit:4;stroke-dasharray:none;stroke-opacity:1"
       d="m 581.60663,990.85455 0,-9.76504 9.99755,0 0,9.76504 -9.99755,0 z" />
    <path
       inkscape:connector-curvature="0"
       id="path8014"
       style="font-style:normal;font-variant:normal;font-weight:800;font-stretch:normal;font-size:medium;line-height:125%;font-family:Oswald;-inkscape-font-specification:'Oswald Ultra-Bold';letter-spacing:0px;word-spacing:0px;fill:#e44082;fill-opacity:1;stroke:#dc0067;stroke-width:2;stroke-linecap:round;stroke-linejoin:round;stroke-miterlimit:4;stroke-dasharray:none;stroke-opacity:1"
       d="m 597.17004,990.85455 0,-48.18585 8.37004,0 8.80598,20.63447 0,-20.63447 9.73598,0 0,48.18585 -8.05035,0 -8.74785,-22.66885 0,22.66885 -10.1138,0 z" />
    <path
       inkscape:connector-curvature="0"
       id="path8016"
       style="font-style:normal;font-variant:normal;font-weight:800;font-stretch:normal;font-size:medium;line-height:125%;font-family:Oswald;-inkscape-font-specification:'Oswald Ultra-Bold';letter-spacing:0px;word-spacing:0px;fill:#e44082;fill-opacity:1;stroke:#dc0067;stroke-width:2;stroke-linecap:round;stroke-linejoin:round;stroke-miterlimit:4;stroke-dasharray:none;stroke-opacity:1"
       d="m 630.4326,990.85455 0,-48.18585 22.5526,0 0,7.90504 -10.75317,0 0,10.75317 8.02128,0 0,8.19567 -8.02128,0 0,13.456 10.86942,0 0,7.87597 -22.66885,0 z" />
    <path
       inkscape:connector-curvature="0"
       id="path8018"
       style="font-style:normal;font-variant:normal;font-weight:800;font-stretch:normal;font-size:medium;line-height:125%;font-family:Oswald;-inkscape-font-specification:'Oswald Ultra-Bold';letter-spacing:0px;word-spacing:0px;fill:#e44082;fill-opacity:1;stroke:#dc0067;stroke-width:2;stroke-linecap:round;stroke-linejoin:round;stroke-miterlimit:4;stroke-dasharray:none;stroke-opacity:1"
       d="m 664.81223,990.85455 0,-39.46706 -7.03315,0 0,-8.71879 25.83668,0 0,8.71879 -7.0041,0 0,39.46706 -11.79943,0 z" />
    <path
       inkscape:connector-curvature="0"
       id="path8021"
       style="font-style:normal;font-variant:normal;font-weight:800;font-stretch:normal;font-size:medium;line-height:125%;font-family:Oswald;-inkscape-font-specification:'Oswald Ultra-Bold';letter-spacing:0px;word-spacing:0px;fill:#40b6e7;fill-opacity:1;stroke:#009ee0;stroke-width:2;stroke-linecap:round;stroke-linejoin:round;stroke-miterlimit:4;stroke-dasharray:none;stroke-opacity:1"
       d="m 386.97418,990.85455 0,-48.18585 21.53542,0 0,7.90504 -9.73599,0 0,11.01474 8.77692,0 0,8.19566 -8.77692,0 0,21.07041 -11.79943,0 z" />
    <path
       inkscape:connector-curvature="0"
       id="path8023"
       style="font-style:normal;font-variant:normal;font-weight:800;font-stretch:normal;font-size:medium;line-height:125%;font-family:Oswald;-inkscape-font-specification:'Oswald Ultra-Bold';letter-spacing:0px;word-spacing:0px;fill:#40b6e7;fill-opacity:1;stroke:#009ee0;stroke-width:2;stroke-linecap:round;stroke-linejoin:round;stroke-miterlimit:4;stroke-dasharray:none;stroke-opacity:1"
       d="m 413.59556,990.85455 0,-48.18585 21.53541,0 0,7.90504 -9.73598,0 0,11.01474 8.77691,0 0,8.19566 -8.77691,0 0,21.07041 -11.79943,0 z" />
    <path
       inkscape:connector-curvature="0"
       id="path8025"
       style="font-style:normal;font-variant:normal;font-weight:800;font-stretch:normal;font-size:medium;line-height:125%;font-family:Oswald;-inkscape-font-specification:'Oswald Ultra-Bold';letter-spacing:0px;word-spacing:0px;fill:#40b6e7;fill-opacity:1;stroke:#009ee0;stroke-width:2;stroke-linecap:round;stroke-linejoin:round;stroke-miterlimit:4;stroke-dasharray:none;stroke-opacity:1"
       d="m 440.21693,990.85455 0,-48.18585 8.37004,0 8.80598,20.63447 0,-20.63447 9.73598,0 0,48.18585 -8.05035,0 -8.74785,-22.66885 0,22.66885 -10.1138,0 z" />
    <path
       inkscape:connector-curvature="0"
       id="path8027"
       style="font-style:normal;font-variant:normal;font-weight:800;font-stretch:normal;font-size:medium;line-height:125%;font-family:Oswald;-inkscape-font-specification:'Oswald Ultra-Bold';letter-spacing:0px;word-spacing:0px;fill:#40b6e7;fill-opacity:1;stroke:#009ee0;stroke-width:2;stroke-linecap:round;stroke-linejoin:round;stroke-miterlimit:4;stroke-dasharray:none;stroke-opacity:1"
       d="m 495.49407,990.56393 q -2.90627,1.04625 -7.03316,1.04625 -4.1269,0 -7.03316,-1.04625 -2.90626,-1.07532 -4.62096,-3.16783 -1.71469,-2.12157 -2.47032,-4.96971 -0.75563,-2.8772 -0.75563,-6.7716 l 0,-17.78633 q 0,-3.89439 0.75563,-6.74253 0.75563,-2.8772 2.47032,-4.96971 1.7147,-2.12157 4.62096,-3.16783 2.90626,-1.07532 7.03316,-1.07532 4.12689,0 7.03316,1.07532 2.93532,1.04626 4.65002,3.16783 1.74376,2.09251 2.49939,4.96971 0.78469,2.84814 0.78469,6.74253 l 0,17.78633 q 0,3.8944 -0.78469,6.7716 -0.75563,2.84814 -2.49939,4.96971 -1.7147,2.09251 -4.65002,3.16783 z m -7.03316,-7.12035 q 0.95907,0 1.56938,-0.40688 0.61032,-0.43594 0.87188,-1.24969 0.26156,-0.81375 0.31969,-1.48219 0.0872,-0.66844 0.0872,-1.65657 l 0,-23.8023 q 0,-0.98813 -0.0872,-1.65657 -0.0581,-0.66844 -0.31969,-1.45314 -0.26156,-0.81375 -0.87188,-1.22063 -0.61031,-0.43594 -1.56938,-0.43594 -0.78469,0 -1.33688,0.31969 -0.55219,0.31969 -0.84282,0.75563 -0.26156,0.40688 -0.40688,1.16251 -0.14531,0.72656 -0.17437,1.22063 0,0.465 0,1.30782 l 0,23.8023 q 0,0.81375 0,1.30781 0.0291,0.49407 0.17437,1.2497 0.14532,0.72656 0.40688,1.1625 0.29063,0.40688 0.84282,0.75563 0.55219,0.31969 1.33688,0.31969 z" />
    <path
       inkscape:connector-curvature="0"
       id="path8029"
       style="font-style:normal;font-variant:normal;font-weight:800;font-stretch:normal;font-size:medium;line-height:125%;font-family:Oswald;-inkscape-font-specification:'Oswald Ultra-Bold';letter-spacing:0px;word-spacing:0px;fill:#40b6e7;fill-opacity:1;stroke:#009ee0;stroke-width:2;stroke-linecap:round;stroke-linejoin:round;stroke-miterlimit:4;stroke-dasharray:none;stroke-opacity:1"
       d="m 521.65044,963.07067 3.08064,0 q 2.90626,0 4.01064,-1.65657 1.13345,-1.68563 1.13345,-4.76627 0,-2.96439 -1.07532,-4.56283 -1.04625,-1.62751 -3.48752,-1.62751 l -3.66189,0 0,12.61318 z m -11.79943,27.78388 0,-48.18585 14.38601,0 q 3.08064,0 5.43471,0.31969 2.38314,0.31969 4.53377,1.16251 2.1797,0.84281 3.54564,2.26688 1.39501,1.39501 2.20876,3.66189 0.81376,2.23783 0.81376,5.2894 0,4.85346 -1.22063,7.73067 -1.22064,2.8772 -4.67909,4.67908 l 6.56816,23.07573 -12.35162,0 -4.99878,-21.30291 -2.44126,0 0,21.30291 -11.79943,0 z" />
    <path
       inkscape:connector-curvature="0"
       id="path8031"
       style="font-style:normal;font-variant:normal;font-weight:800;font-stretch:normal;font-size:medium;line-height:125%;font-family:Oswald;-inkscape-font-specification:'Oswald Ultra-Bold';letter-spacing:0px;word-spacing:0px;fill:#40b6e7;fill-opacity:1;stroke:#009ee0;stroke-width:2;stroke-linecap:round;stroke-linejoin:round;stroke-miterlimit:4;stroke-dasharray:none;stroke-opacity:1"
       d="m 546.93493,990.85455 0,-48.18585 12.70038,0 q 4.96971,0 8.1666,0.84282 3.22595,0.81375 5.14408,2.73189 1.91814,1.91813 2.67377,4.73721 0.78469,2.79001 0.78469,7.06222 l 0,17.37945 q 0,4.30127 -0.78469,7.12035 -0.75563,2.79001 -2.67377,4.73721 -1.91813,1.91813 -5.14408,2.76095 -3.19689,0.81375 -8.13754,0.81375 l -12.72944,0 z m 11.79943,-8.13753 1.10439,0 q 1.51125,0 2.38313,-0.23251 0.90094,-0.26156 1.33688,-0.90094 0.465,-0.63938 0.58126,-1.395 0.14531,-0.7847 0.14531,-2.1797 l 0,-22.61073 q 0,-1.39501 -0.14531,-2.15064 -0.11626,-0.75563 -0.58126,-1.36594 -0.43594,-0.61032 -1.33688,-0.84282 -0.87188,-0.2325 -2.38313,-0.2325 l -1.10439,0 0,31.91078 z" />
    <path
       style="color:#000000;clip-rule:nonzero;display:inline;overflow:visible;visibility:visible;opacity:1;isolation:auto;mix-blend-mode:normal;color-interpolation:sRGB;color-interpolation-filters:linearRGB;solid-color:#000000;solid-opacity:1;fill:#e44082;fill-opacity:1;fill-rule:nonzero;stroke:#dc0067;stroke-width:1;stroke-linecap:round;stroke-linejoin:round;stroke-miterlimit:4;stroke-dasharray:none;stroke-dashoffset:0;stroke-opacity:1;color-rendering:auto;image-rendering:auto;shape-rendering:auto;text-rendering:auto;enable-background:accumulate"
       d="M 3 3 L 3 1049.3613 L 741.09375 1049.3613 L 741.09375 3 L 3 3 z M 6 6 L 738.09375 6 L 738.09375 1046.3613 L 6 1046.3613 L 6 6 z "
       id="rect7246" />
  </g>
</svg>
